<svg xmlns="http://www.w3.org/2000/svg" width="70.166" height="38.162" viewBox="0 0 70.166 38.162">
  <g id="icon-react-router" transform="translate(0 0)">
    <path id="Trazado_17" data-name="Trazado 17" d="M128.733,25a29.883,29.883,0,0,1-4.127.806c-.376.066-.773.007-1.153.06-2.947.409-4.061,1.589-4.477,4.728a10.65,10.65,0,0,1-1.62,4.68,6.567,6.567,0,0,1-7.46,2.552,6.39,6.39,0,0,1-4.4-6.615,6.656,6.656,0,0,1,5.315-5.753,31.744,31.744,0,0,1,4.277-.58c2.674-.243,3.855-1.415,4.3-4.044a10.823,10.823,0,0,0-.308-4.367c-.512-2.181-2.1-3.194-4.766-3.388a20.234,20.234,0,0,1-4.327-.735,6.2,6.2,0,0,1-4.5-6.41,6.485,6.485,0,0,1,4.8-5.742,6.328,6.328,0,0,1,7.332,3.216,17.452,17.452,0,0,1,1.312,4.579c.474,2.8,1.585,3.882,4.375,4.185a28.216,28.216,0,0,1,5.363.958,6.083,6.083,0,0,1,4.181,5.958A6.169,6.169,0,0,1,128.733,25Z" transform="translate(-76.569 0)" fill="#f94949"/>
    <path id="Trazado_18" data-name="Trazado 18" d="M61.222,59.089a6.361,6.361,0,1,1,6.359-6.362A6.375,6.375,0,0,1,61.222,59.089Z" transform="translate(-39.823 -33.659)" fill="#fff"/>
    <path id="Trazado_19" data-name="Trazado 19" d="M6.34,105.508a6.361,6.361,0,1,1,6.382-6.34A6.375,6.375,0,0,1,6.34,105.508Z" transform="translate(0 -67.355)" fill="#fff"/>
    <path id="Trazado_20" data-name="Trazado 20" d="M215.988,105.507A6.361,6.361,0,1,1,222.3,99.1,6.375,6.375,0,0,1,215.988,105.507Z" transform="translate(-152.136 -67.355)" fill="#fff"/>
  </g>
</svg>
