<svg xmlns="http://www.w3.org/2000/svg" width="34.983" height="45.692" viewBox="0 0 34.983 45.692">
  <g id="icon-Bootstrap" transform="translate(749.599 -206.957)">
    <path id="Trazado_22" data-name="Trazado 22" d="M196.273,140.15c9.741,0,15.611-4.77,15.611-12.636,0-5.947-4.188-10.252-10.407-10.933v-.248a9.985,9.985,0,0,0,8.155-9.725c0-6.752-5.331-11.15-13.453-11.15H177.9V140.15Zm-11.264-39.025h9.456c5.14,0,8.059,2.292,8.059,6.442,0,4.429-3.395,6.907-9.551,6.907h-7.964Zm0,33.357V119.77H194.4c6.727,0,10.217,2.478,10.217,7.309s-3.395,7.4-9.8,7.4Z" transform="translate(-927 112)" fill="#fff" stroke="#fff" stroke-width="1"/>
  </g>
</svg>
