<svg xmlns="http://www.w3.org/2000/svg" width="60.228" height="60.227" viewBox="0 0 60.228 60.227">
  <path id="icon-git" d="M59.092,29.682,32.8,3.386a3.881,3.881,0,0,0-5.486,0L21.85,8.848l6.926,6.926a4.609,4.609,0,0,1,5.833,5.872l6.676,6.676a4.613,4.613,0,1,1-2.76,2.6L32.295,24.7V41.082a4.612,4.612,0,1,1-3.794-.134V24.412a4.611,4.611,0,0,1-2.506-6.05l-6.828-6.836L1.136,29.559a3.88,3.88,0,0,0,0,5.486l26.3,26.3a3.88,3.88,0,0,0,5.485,0L59.092,35.168a3.88,3.88,0,0,0,0-5.486Z" transform="translate(0 -2.25)" fill="#fff"/>
</svg>
