<svg xmlns="http://www.w3.org/2000/svg" width="55.764" height="55.764" viewBox="0 0 55.764 55.764">
  <path id="mail" d="M49.79,55.764H5.974A5.981,5.981,0,0,1,0,49.79V5.974A5.981,5.981,0,0,1,5.974,0H49.79a5.981,5.981,0,0,1,5.974,5.974V49.79A5.981,5.981,0,0,1,49.79,55.764ZM13.553,14a3.548,3.548,0,0,0-3.534,3.553L10,38.871a3.557,3.557,0,0,0,3.553,3.553H41.977a3.558,3.558,0,0,0,3.555-3.553V17.553A3.558,3.558,0,0,0,41.977,14ZM27.765,29.989h0L13.553,21.106V17.553l14.212,8.883,14.212-8.883v3.553L27.765,29.989Z" fill="#fff"/>
</svg>
