<svg xmlns="http://www.w3.org/2000/svg" width="71.549" height="42.963" viewBox="0 0 71.549 42.963">
  <g id="icon-Tailwind" transform="translate(-40.5 -226.318)">
    <path id="Trazado_23" data-name="Trazado 23" d="M286.186,226.332c-12.587.4-16.328,9.392-17.186,14.263,1.117-1.806,4.637-5.768,9.82-5.768,6.04,0,10.639,6.742,13.445,8.846a21.25,21.25,0,0,0,19.251,3.2c7.171-2.182,10.5-9.795,11.223-13.406-3.468,4.715-8.729,7.548-15.237,4.209C303.021,235.373,299.669,225.9,286.186,226.332Z" transform="translate(-210.691 0)" fill="#07b6d5"/>
    <path id="Trazado_24" data-name="Trazado 24" d="M57.686,500.832c-12.587.4-16.328,9.392-17.186,14.263,1.117-1.806,4.637-5.767,9.82-5.767,6.04,0,10.639,6.742,13.445,8.846a21.25,21.25,0,0,0,19.251,3.2c7.171-2.182,10.5-9.795,11.223-13.406-3.468,4.715-8.729,7.548-15.237,4.209C74.521,509.873,71.17,500.4,57.686,500.832Z" transform="translate(0 -253.105)" fill="#07b6d5"/>
  </g>
</svg>
