<svg xmlns="http://www.w3.org/2000/svg" width="57.328" height="57.328" viewBox="0 0 57.328 57.328">
  <path id="LinkedIn" d="M8771.187-98.671h-45.043a6.15,6.15,0,0,1-6.144-6.144v-45.043a6.149,6.149,0,0,1,6.144-6.141h45.043a6.148,6.148,0,0,1,6.142,6.141v45.043A6.149,6.149,0,0,1,8771.187-98.671Zm-16.6-29.637c3.395,0,3.395,3.219,3.395,5.569V-112.5h6.522v-11.554c0-5.2-.947-10.005-7.822-10.005a6.9,6.9,0,0,0-6.181,3.4h-.091v-2.868h-6.265v21.03h6.524v-10.413C8750.665-125.581,8751.131-128.308,8754.582-128.308Zm-21.062-5.223v21.03h6.529v-21.03h-6.529Zm3.263-10.47a3.786,3.786,0,0,0-3.782,3.782,3.8,3.8,0,0,0,3.782,3.818,3.8,3.8,0,0,0,3.782-3.818A3.786,3.786,0,0,0,8736.783-144Z" transform="translate(-8720 155.999)" fill="#fff"/>
</svg>
