<svg xmlns="http://www.w3.org/2000/svg" width="50.389" height="39.592" viewBox="0 0 50.389 39.592">
  <g id="icon-javascript" transform="translate(0 0)">
    <path id="Trazado_12" data-name="Trazado 12" d="M-4.954,2.813h-9v23.9c0,5.914-2.028,7.565-5.558,7.565a13.445,13.445,0,0,1-4.3-.682l-.938,7a21.334,21.334,0,0,0,6.176.911c8.1,0,13.62-3.81,13.62-14.732V2.813Z" transform="translate(24.75 -1.912)"/>
    <path id="Trazado_13" data-name="Trazado 13" d="M5.224,2.25C-3.486,2.25-9,7.2-9,13.74c0,5.633,4.246,9.16,10.42,11.435,4.465,1.592,6.23,3.015,6.23,5.347,0,2.559-2.04,4.209-5.9,4.209A19.509,19.509,0,0,1-7.291,32.34v0L-9,39.449A22.3,22.3,0,0,0,1.254,41.839c10.2,0,14.94-5.461,14.94-11.888,0-5.461-3.032-8.987-9.592-11.491C1.751,16.527-.289,15.446-.289,13c0-1.935,1.765-3.7,5.4-3.7a15.561,15.561,0,0,1,7.48,1.945l2.151-7.2a23.17,23.17,0,0,0-9.522-1.8Z" transform="translate(34.195 -2.25)"/>
  </g>
</svg>
