<svg xmlns="http://www.w3.org/2000/svg" width="57.329" height="57.329" viewBox="0 0 57.329 57.329">
  <path id="github" d="M51.186,2.25H6.142A6.144,6.144,0,0,0,0,8.392V53.436a6.144,6.144,0,0,0,6.142,6.142H51.186a6.144,6.144,0,0,0,6.142-6.142V8.392A6.144,6.144,0,0,0,51.186,2.25Zm-15.7,49.1c-1.075.192-1.472-.473-1.472-1.024,0-.691.026-4.223.026-7.076a4.986,4.986,0,0,0-1.446-3.929c4.735-.525,9.725-1.177,9.725-9.354a6.57,6.57,0,0,0-2.188-4.991,8,8,0,0,0-.218-5.758c-1.779-.55-5.848,2.291-5.848,2.291a20.131,20.131,0,0,0-10.647,0s-4.069-2.841-5.848-2.291a7.941,7.941,0,0,0-.218,5.758,6.427,6.427,0,0,0-2,4.991c0,8.139,4.773,8.83,9.508,9.354a4.638,4.638,0,0,0-1.356,2.854c-1.216.55-4.325,1.5-6.181-1.779a4.458,4.458,0,0,0-3.263-2.188c-2.073-.026-.141,1.305-.141,1.305,1.382.64,2.355,3.1,2.355,3.1,1.241,3.8,7.179,2.521,7.179,2.521,0,1.779.026,4.671.026,5.2,0,.55-.384,1.216-1.472,1.024A21.23,21.23,0,0,1,7.652,31.093a20.307,20.307,0,0,1,20.73-20.666c11.747,0,21.268,8.919,21.268,20.666A21.035,21.035,0,0,1,35.485,51.35ZM22.931,43.532c-.243.051-.473-.051-.5-.218-.026-.192.141-.358.384-.409.243-.026.473.077.5.243S23.187,43.481,22.931,43.532Zm-1.216-.115c0,.166-.192.307-.448.307-.282.026-.473-.115-.473-.307,0-.166.192-.307.448-.307C21.485,43.084,21.716,43.225,21.716,43.417Zm-1.753-.141c-.051.166-.307.243-.525.166-.243-.051-.409-.243-.358-.409s.307-.243.525-.192C19.86,42.917,20.027,43.109,19.963,43.276Zm-1.574-.691c-.115.141-.358.115-.55-.077-.192-.166-.243-.409-.115-.525.115-.141.358-.115.55.077C18.44,42.226,18.5,42.482,18.389,42.585ZM17.224,41.42c-.115.077-.333,0-.473-.192s-.141-.409,0-.5c.141-.115.358-.026.473.166A.375.375,0,0,1,17.224,41.42Zm-.832-1.241c-.115.115-.307.051-.448-.077-.141-.166-.166-.358-.051-.448.115-.115.307-.051.448.077C16.482,39.9,16.508,40.089,16.392,40.179Zm-.857-.947a.241.241,0,0,1-.358.051c-.166-.077-.243-.218-.192-.333a.3.3,0,0,1,.358-.051C15.509,38.989,15.586,39.13,15.535,39.232Z" transform="translate(0 -2.25)" fill="#fff"/>
</svg>
