<svg xmlns="http://www.w3.org/2000/svg" width="114.393" height="121.429" viewBox="0 0 114.393 121.429">
  <path id="icon-ues" d="M17.469,121.381l0,0A31.167,31.167,0,0,1,5.233,117.7a17.1,17.1,0,0,1-2.37-1.92c-1.137-4-1.39-8.418-1.962-12.192a2.343,2.343,0,0,1,.295-.7,14.4,14.4,0,0,0,5.975,5.815,29.546,29.546,0,0,0,10.451,2.639,63.5,63.5,0,0,0,7.09.012V106.6a1.261,1.261,0,0,1,.907-.434c.847,1.7,3.207,2.076,5.119,1.857,2.11-.247,4.181-.6,6.24-1.045a1.16,1.16,0,0,1,.28,2.122,18.431,18.431,0,0,1-8.251,2.809,54.48,54.48,0,0,1-14.544-.029,26.383,26.383,0,0,1-8.838-3.1A35.65,35.65,0,0,1,2.506,106.5c-.032,2.9-.069,5.643,1.045,8.321,1.824,2.964,7.571,4.445,10.869,5.143a37.846,37.846,0,0,0,12.369.24,55.669,55.669,0,0,0,5.582-1.273c2.406-.775,4.539-1.134,5.948-2.725.593-.478.785-4.772.592-9.041-.43-.719-2.141-.278-2.659-.2a34.051,34.051,0,0,1-6.114.612c-1.356.082-3.639-.325-3.54-1.423,1.477-2.793,9.649-2.96,12.76-3.087,1.375-.048,2.748-.125,4.123-.193C24.815,96.259,11.207,76.226,11.2,52.607,11.2,23.6,31.709,0,56.917,0c25.227,0,45.735,23.6,45.735,52.607-.006,23.634-13.633,43.677-32.317,50.284,1.15.021,7.159.286,7.891.355a38.792,38.792,0,0,1,8.017,1.545c.943.362,1.615.854,1.5,1.651-.711,1.167-1.831,1.079-3.207,1.113-3.75-.253-6.718-1.293-8.7-.639-.567.25-.625.578-.353,1.99a60.033,60.033,0,0,1,.541,7.249c.9,1.3,2.821,1.9,4.472,2.351a58.1,58.1,0,0,0,12.274,2,29.258,29.258,0,0,0,9.29-1.029c3.142-.91,6.047-1.77,8.154-3.767q.918-.99,1.436-4.458a24.057,24.057,0,0,0,.211-4.759,24.064,24.064,0,0,1-3.779,2.64,25.924,25.924,0,0,1-7.649,2.65,49.38,49.38,0,0,1-15.709-.222,36.664,36.664,0,0,1-6.247-1.7,4.263,4.263,0,0,1-2.061-1.508c-.073-.755.346-1.171,1.127-1.344a56.234,56.234,0,0,0,6.026,1.016c1.558.175,4.183-.049,4.9-1.155a1.28,1.28,0,0,0,.2-.7,1.042,1.042,0,0,1,.932.466v4.727l3.84.231a32.771,32.771,0,0,0,8.116-.921c3.758-1.012,8.145-2.575,10.238-5.609a19.143,19.143,0,0,0,1.322-2.168,1.807,1.807,0,0,1,.3.7c-.206,1.342-.406,2.7-.524,4.037-.269,3.113-1.109,7.732-1.5,8.239-3.815,3.249-8.381,4.79-13.458,5.41a43.963,43.963,0,0,1-19.656-2.7,7.581,7.581,0,0,1-3.575-2.653v-2.051c-3.576-.439-7.264-.966-10.518-1.2-4.734-.153-9.74-.255-14.056,0-3.475.209-7.286.74-10.518,1.2a8.228,8.228,0,0,1-.159,2.45c-3.363,3.328-9.86,4.47-14.436,4.975-.778.082-3.336.136-5.3.136C18.7,121.429,17.842,121.414,17.469,121.381ZM39.7,110.062c-.022,2.105-.324,2.743-.066,2.74,2.589-.37,5.285-.671,7.94-.877h.013a185.87,185.87,0,0,1,19.141,0c1.973.148,6.267.6,7.18.759.569.1.647.107.9.019.135-.183.118-.39-.226-2.732-.228-1.3-.728-3.07.643-3.866a5.85,5.85,0,0,1,3.556-.044c.455.1,1.924.316,3.26.471a14.171,14.171,0,0,0,4.047.15c.742-.707.188-1.061-.586-1.414a33.866,33.866,0,0,0-7.86-1.42c-2.9-.109-5.223-.107-8-.105H67.712l-.137.014A39.985,39.985,0,0,1,56.936,105.2h-.02a39.974,39.974,0,0,1-10.29-1.344l-.534-.085-2.391-.048a65.583,65.583,0,0,0-11.448.7,15.665,15.665,0,0,0-3.573.89c-1.818.992-.016,1.416,1.14,1.5,2.669-.072,5.38-.9,7.729-.944C40.8,106.335,39.654,109.064,39.7,110.062Zm-14.184,1.3a32.728,32.728,0,0,0,5.883-.421h0c3.34-.813,7.157-2.432,5.439-3.444a9.535,9.535,0,0,0-1.282.349,14.3,14.3,0,0,1-9.9.05C25.541,109.157,25.549,110.008,25.518,111.362Zm51.935-3.493a.547.547,0,0,0,.043.8,14.781,14.781,0,0,0,4.1,1.537,34.656,34.656,0,0,0,7.212,1.1c.027-.657-.153-3.909-.313-3.557h0a6.5,6.5,0,0,1-3.954.876,20.421,20.421,0,0,1-2.181-.172c-1.361-.231-2.311-.422-2.987-.6a5.788,5.788,0,0,0-1.21-.174c-.11-.006-.2-.013-.278-.013A.483.483,0,0,0,77.453,107.87ZM56.936,104.7V104.7h0Zm-44.593-52.1c.008,28.456,20,51.607,44.574,51.607l.011.272h.009v-.272c24.57,0,44.566-23.153,44.573-51.607S81.514.983,56.936.983C32.338.983,12.343,24.141,12.343,52.607Zm80.124,67.412c-.237,0-.481-.008-.725-.016L91.548,120H91.54a.043.043,0,0,1-.038-.04c-.013-.777-.01-1.561.007-2.334-.424-.02-.855-.049-1.283-.084a.044.044,0,0,1-.043-.041c0-.092,0-.183,0-.275q0-.1,0-.209a.039.039,0,0,1,.016-.03.052.052,0,0,1,.037-.01c.508.043,1.02.075,1.523.1.384.016.77.027,1.148.031l.417,0c.163,0,.328,0,.491,0a.053.053,0,0,1,.035.012.038.038,0,0,1,.014.03c-.008.158-.015.319-.02.479a.045.045,0,0,1-.047.04c-.194,0-.391,0-.585,0h-.324l-.381-.006c-.021.769-.02,1.549,0,2.319a.038.038,0,0,1-.014.03.052.052,0,0,1-.034.012Zm2.743-.113a1.524,1.524,0,0,1-.555-.211.741.741,0,0,1-.28-.315,2.016,2.016,0,0,1-.1-.721c0-.5.013-1,.039-1.5a.042.042,0,0,1,.034-.037l.015,0c.3-.009.6-.022.9-.039a.052.052,0,0,1,.037.012.038.038,0,0,1,.014.031c-.028.5-.042,1.014-.041,1.513a1.635,1.635,0,0,0,.037.451.409.409,0,0,0,.257.227,1.051,1.051,0,0,0,.364.055,2.116,2.116,0,0,0,.213-.012,1.34,1.34,0,0,0,.553-.151.426.426,0,0,0,.208-.24,2.089,2.089,0,0,0,.031-.461c0-.5.013-1.016.045-1.526a.044.044,0,0,1,.042-.039c.3-.03.6-.065.9-.1h.007a.053.053,0,0,1,.032.011.039.039,0,0,1,.015.033c-.031.477-.047.959-.046,1.432a2.616,2.616,0,0,1-.062.711.87.87,0,0,1-.267.4,1.743,1.743,0,0,1-.524.3,3.511,3.511,0,0,1-.869.187,5.377,5.377,0,0,1-.565.034A2.37,2.37,0,0,1,95.21,119.906Zm-74.926.034c-.309-.006-.622-.017-.931-.031a.053.053,0,0,1-.026-.007.04.04,0,0,1-.021-.036c.045-.892.073-1.8.083-2.695a.039.039,0,0,1,.015-.029.051.051,0,0,1,.035-.011c.466.016.942.024,1.414.024h.318l.226,0h.012l.255,0a4.974,4.974,0,0,1,.832.048,1.249,1.249,0,0,1,.4.136.848.848,0,0,1,.154.111.554.554,0,0,1,.2.446.7.7,0,0,1-.343.552l-.049.032a2.006,2.006,0,0,1-.723.239,2,2,0,0,1,.338.16,2.7,2.7,0,0,1,.364.278c.05.043.1.091.158.142.189.173.367.334.543.491a.037.037,0,0,1,.01.043.047.047,0,0,1-.041.026c-.241.017-.485.032-.724.044l-.388.018a.053.053,0,0,1-.036-.012c-.219-.188-.433-.374-.652-.568a4.577,4.577,0,0,0-.469-.386.776.776,0,0,0-.134-.068.737.737,0,0,0-.124-.036,2.6,2.6,0,0,0-.456-.032l-.141,0c-.013.36-.027.727-.043,1.089a.045.045,0,0,1-.048.039Zm.108-1.642c.165,0,.332,0,.5,0h.245a4.735,4.735,0,0,0,.723-.043.55.55,0,0,0,.243-.111.24.24,0,0,0,.088-.179.2.2,0,0,0-.1-.182h0a.67.67,0,0,0-.321-.089c-.029,0-.079,0-.161,0H20.86l-.451,0C20.4,117.892,20.4,118.094,20.392,118.3Zm69.925,1.637c-1.023-.079-2.079-.211-3.137-.394a.043.043,0,0,1-.04-.042c.039-.929.05-1.876.033-2.817a.039.039,0,0,1,.017-.032.053.053,0,0,1,.039-.009c.294.047.593.091.89.131a.044.044,0,0,1,.04.04c.007.766,0,1.546-.018,2.317.734.105,1.47.187,2.186.242a.044.044,0,0,1,.043.041c0,.154,0,.31,0,.462v.02a.039.039,0,0,1-.016.03.052.052,0,0,1-.032.011Zm-71.77-.062a32.949,32.949,0,0,1-3.479-.439.042.042,0,0,1-.038-.044v0c.056-.854.073-1.727.051-2.594a.039.039,0,0,1,.017-.032.053.053,0,0,1,.039-.009c1.1.167,2.25.285,3.406.351a.044.044,0,0,1,.044.041c0,.134,0,.279,0,.455a.039.039,0,0,1-.015.03.053.053,0,0,1-.036.011c-.815-.049-1.632-.125-2.428-.226,0,.17,0,.338,0,.5.741.1,1.5.175,2.255.227a.044.044,0,0,1,.044.042c0,.152-.008.3-.012.452a.039.039,0,0,1-.016.029.052.052,0,0,1-.036.01c-.752-.054-1.507-.132-2.246-.234-.006.21-.014.422-.025.632.827.12,1.671.21,2.51.268a.044.044,0,0,1,.044.043c-.007.148-.015.3-.023.452a.039.039,0,0,1-.016.029.052.052,0,0,1-.031.01Zm6.478-.153a.051.051,0,0,1-.034-.012.038.038,0,0,1-.013-.03c.024-.726.054-1.463.09-2.193-.438.044-.879.081-1.311.111a.052.052,0,0,1-.037-.011.039.039,0,0,1-.015-.031c.007-.153.014-.308.022-.459a.045.045,0,0,1,.044-.039c1.2-.082,2.422-.216,3.642-.4a.053.053,0,0,1,.04.01.038.038,0,0,1,.016.032q-.012.227-.023.454a.044.044,0,0,1-.039.039c-.439.066-.882.126-1.316.179-.037.73-.069,1.47-.095,2.2a.044.044,0,0,1-.041.039c-.31.039-.62.076-.924.108h-.006Zm1.883-.257a.036.036,0,0,1,0-.044l.508-.795c.464-.726.991-1.548,1.384-2.174a.048.048,0,0,1,.032-.021c.319-.057.643-.118.962-.182a.052.052,0,0,1,.051.018l.368.5c.453.61.921,1.24,1.323,1.82a.037.037,0,0,1-.009.051.052.052,0,0,1-.024.01c-.332.071-.665.14-.988.206a.051.051,0,0,1-.052-.019c-.106-.159-.219-.325-.344-.507-.6.12-1.192.23-1.761.328l-.025.041-.367.614a.048.048,0,0,1-.033.022c-.329.054-.658.105-.975.152h-.008A.05.05,0,0,1,26.909,119.462Zm1.807-1.406c.354-.063.716-.131,1.079-.2l-.305-.459-.2-.3C29.089,117.431,28.89,117.765,28.716,118.056Zm70.19,1.418h0a.043.043,0,0,1-.037-.04v0a20.3,20.3,0,0,1,.005-2.689.044.044,0,0,1,.039-.038c.614-.092,1.239-.2,1.856-.323a5.819,5.819,0,0,1,1-.14h.01a.833.833,0,0,1,.516.145.455.455,0,0,1,.185.4.827.827,0,0,1-.306.58,2.145,2.145,0,0,1-.711.4,1.61,1.61,0,0,1,.312.087,2.848,2.848,0,0,1,.514.3c.163.11.332.221.5.331.463-.928,1-1.906,1.636-2.988a.046.046,0,0,1,.027-.02c.29-.084.586-.173.881-.265a.052.052,0,0,1,.056.017,21.669,21.669,0,0,0,1.6,1.909.037.037,0,0,1,.01.034.043.043,0,0,1-.028.03c-.293.11-.59.219-.884.324a.053.053,0,0,1-.056-.013c-.122-.138-.241-.274-.354-.407-.528.18-1.067.353-1.6.516-.11.225-.214.446-.312.656a.045.045,0,0,1-.028.024c-.3.09-.6.178-.9.261a.046.046,0,0,1-.028.022c-.343.1-.69.188-1.031.275a.054.054,0,0,1-.041-.006c-.224-.135-.445-.273-.658-.411a3.735,3.735,0,0,0-.463-.276.613.613,0,0,0-.244-.05h-.009a2.511,2.511,0,0,0-.424.057l-.141.027c0,.356.018.715.041,1.068a.043.043,0,0,1-.037.042c-.3.061-.595.118-.884.17h-.023Zm2.207-2.626c-.059.008-.205.036-.448.084l-.186.036c-.217.042-.436.083-.652.122-.009.2-.015.4-.018.594.2-.037.4-.075.592-.115a5.488,5.488,0,0,0,.777-.2.656.656,0,0,0,.23-.154.291.291,0,0,0,.083-.192.144.144,0,0,0-.085-.15h0a.407.407,0,0,0-.184-.035A.99.99,0,0,0,101.113,116.849Zm3.275.16c.324-.1.65-.2.97-.308-.166-.214-.325-.429-.476-.641C104.706,116.391,104.544,116.7,104.389,117.009ZM84.54,119.052a3.846,3.846,0,0,1-.935-.334,1.977,1.977,0,0,1-.491-.378,1.041,1.041,0,0,1-.233-.384,2.674,2.674,0,0,1-.067-.726c0-.486-.007-.98-.033-1.467a.034.034,0,0,1,0-.016.047.047,0,0,1,.046-.031h.01l.007,0c.284.073.571.145.855.213a.043.043,0,0,1,.035.038c.025.506.034,1.014.028,1.51a2.255,2.255,0,0,0,.021.46.62.62,0,0,0,.236.317,1.494,1.494,0,0,0,.547.235,1.138,1.138,0,0,0,.532.034.268.268,0,0,0,.2-.163,1.826,1.826,0,0,0,.047-.457c.008-.512,0-1.037-.016-1.56a.039.039,0,0,1,.018-.033.054.054,0,0,1,.041-.008c.292.059.587.115.878.168a.043.043,0,0,1,.038.039c.014.5.017,1,.011,1.492a2.227,2.227,0,0,1-.09.716.612.612,0,0,1-.3.32,1.284,1.284,0,0,1-.542.125h-.064A3.4,3.4,0,0,1,84.54,119.052Zm-71.377-.038c-.127-.023-.5-.1-1.081-.264-.49-.136-.989-.286-1.484-.447a.041.041,0,0,1-.031-.04c.031-.81.032-1.641,0-2.47a.04.04,0,0,1,.026-.038.054.054,0,0,1,.021,0l.017,0c.577.171,1.169.328,1.759.468.357.085.615.148.795.2a2.276,2.276,0,0,1,.484.206c.039.023.077.046.112.071a1.342,1.342,0,0,1,.253.223.541.541,0,0,1,.152.352.387.387,0,0,1-.19.332.724.724,0,0,1-.222.1.967.967,0,0,1-.1.022c.038.017.074.034.108.051a1.568,1.568,0,0,1,.386.261.611.611,0,0,1,.222.46.473.473,0,0,1-.172.339.837.837,0,0,1-.427.192l-.069.01a1.456,1.456,0,0,1-.16.008A2.278,2.278,0,0,1,13.162,119.014Zm-1.607-.922c.264.076.528.15.787.218a6.084,6.084,0,0,0,.607.139.913.913,0,0,0,.127.01.479.479,0,0,0,.175-.029.153.153,0,0,0,.108-.151.258.258,0,0,0-.082-.189.791.791,0,0,0-.265-.17,7.194,7.194,0,0,0-.786-.229c-.221-.057-.442-.117-.659-.178C11.566,117.706,11.562,117.9,11.556,118.092Zm.015-1.081c.184.051.369.1.551.147.329.085.562.137.648.152a1.108,1.108,0,0,0,.182.017.476.476,0,0,0,.154-.022.13.13,0,0,0,.1-.132.249.249,0,0,0-.1-.188.873.873,0,0,0-.323-.157c-.059-.017-.159-.042-.31-.079l-.457-.114c-.15-.038-.3-.078-.451-.118C11.567,116.681,11.569,116.847,11.57,117.011Zm20.365,1.529a.038.038,0,0,1-.017-.034c.063-.91.095-1.823.094-2.713,0,0,0,0,0-.006a.044.044,0,0,1,.034-.034c.539-.132,1.086-.276,1.625-.426a5.739,5.739,0,0,1,.843-.187,2.139,2.139,0,0,1,.224-.012,1.4,1.4,0,0,1,.473.075.918.918,0,0,1,.465.35,1.149,1.149,0,0,1,.164.654,1.484,1.484,0,0,1-.155.669,2.031,2.031,0,0,1-.52.646,2.759,2.759,0,0,1-.665.39,4.931,4.931,0,0,1-.815.251c-.622.144-1.18.27-1.707.386h-.011A.052.052,0,0,1,31.935,118.539Zm2.168-2.754c-.117.016-.334.067-.728.171l-.369.1c0,.567-.015,1.149-.049,1.731l.615-.145a4.308,4.308,0,0,0,.543-.157,1.394,1.394,0,0,0,.359-.2.862.862,0,0,0,.24-.319,1.306,1.306,0,0,0,.1-.529.869.869,0,0,0-.086-.456.412.412,0,0,0-.233-.18.708.708,0,0,0-.207-.027A1.361,1.361,0,0,0,34.1,115.786ZM9.755,118.036c-.285-.1-.574-.2-.86-.311a.044.044,0,0,1-.027-.027.038.038,0,0,1,0-.013c.014-.8.011-1.621-.011-2.435a.04.04,0,0,1,.021-.035.055.055,0,0,1,.045,0c.284.1.574.2.863.294a.042.042,0,0,1,.031.037c.027.823.029,1.65.005,2.456a.04.04,0,0,1-.021.033.054.054,0,0,1-.044,0Zm70.607-.253a3.2,3.2,0,0,1-1.321-.839,1.743,1.743,0,0,1-.508-1.177.815.815,0,0,1,.512-.875,1.386,1.386,0,0,1,.5-.083,3.083,3.083,0,0,1,.9.159,3.444,3.444,0,0,1,1.272.674,1.7,1.7,0,0,1,.458.642.037.037,0,0,1-.008.04.052.052,0,0,1-.044.014c-.271-.034-.55-.073-.83-.114a.046.046,0,0,1-.038-.029.908.908,0,0,0-.305-.408,1.653,1.653,0,0,0-.551-.288,1.46,1.46,0,0,0-.429-.077.661.661,0,0,0-.263.049c-.161.071-.239.252-.236.553a1.143,1.143,0,0,0,.258.779,1.58,1.58,0,0,0,.692.447,1.193,1.193,0,0,0,.379.071.7.7,0,0,0,.163-.018.46.46,0,0,0,.322-.29.037.037,0,0,1,.009-.015.053.053,0,0,1,.062-.01c.27.14.542.28.808.415a.038.038,0,0,1,.019.052.893.893,0,0,1-.687.484,1.48,1.48,0,0,1-.235.018A2.779,2.779,0,0,1,80.362,117.783ZM8.315,117.5c-.949-.372-1.926-.8-2.9-1.258a.04.04,0,0,1-.025-.04c-.022-.814-.018-1.627.013-2.416a.041.041,0,0,1,.025-.035.055.055,0,0,1,.047,0c.264.133.535.264.8.39a.04.04,0,0,1,.025.037c-.01.649-.012,1.312,0,1.97.688.311,1.381.6,2.061.869a.041.041,0,0,1,.028.038c0,.134,0,.272,0,.408a.04.04,0,0,1-.022.034.055.055,0,0,1-.045,0Zm12.545-1.483a.036.036,0,0,1,0-.041c.249-.394.48-.766.724-1.161l.317-.512c.307-.492.548-.873.782-1.235a.05.05,0,0,1,.039-.021c.328-.014.663-.031,1-.051a.051.051,0,0,1,.045.021c.322.5.6.919.874,1.315.316.457.629.886.955,1.311a.039.039,0,0,1,.01.022.043.043,0,0,1-.04.044c-.317.041-.635.079-.943.113l-.039,0-.034,0a.051.051,0,0,1-.047-.019c-.132-.185-.268-.379-.4-.576-.609.055-1.212.095-1.792.12l-.127.224-.187.33-.043.075-.007.012a.049.049,0,0,1-.041.023c-.33.011-.666.017-1,.018A.05.05,0,0,1,20.86,116.014Zm1.778-1.242c.362-.018.733-.041,1.1-.07-.175-.276-.356-.567-.549-.886C23.02,114.111,22.842,114.418,22.638,114.772Zm-2.157,1.242c-.312,0-.629-.011-.942-.023a.044.044,0,0,1-.045-.041c.016-.949.014-1.91,0-2.858a.038.038,0,0,1,.014-.03.052.052,0,0,1,.033-.012h0c.311.008.628.014.943.016a.045.045,0,0,1,.047.041c.005.947.005,1.912,0,2.867a.039.039,0,0,1-.014.029.052.052,0,0,1-.033.012Zm72.746-.09a.051.051,0,0,1-.035-.014l-.128-.123c-.172-.166-.343-.335-.523-.515l-.076-.076a4.325,4.325,0,0,0-.386-.358.738.738,0,0,0-.249-.123,2.192,2.192,0,0,0-.434-.054l-.129-.007c0,.412,0,.8,0,1.172a.038.038,0,0,1-.015.03.052.052,0,0,1-.036.011c-.292-.016-.59-.036-.887-.059a.049.049,0,0,1-.038-.021.037.037,0,0,1-.005-.025c0-.966,0-1.947.029-2.916a.039.039,0,0,1,.016-.03.053.053,0,0,1,.036-.01c.629.053,1.258.093,1.87.118.113,0,.214.01.308.016a5.144,5.144,0,0,1,.6.066c.047.009.09.018.129.029a1.067,1.067,0,0,1,.528.294.658.658,0,0,1,.188.48.705.705,0,0,1-.322.568,1.458,1.458,0,0,1-.565.222c-.057.011-.116.02-.178.028.07.032.134.065.192.1s.1.062.148.094a4.076,4.076,0,0,1,.516.473c.182.186.365.371.546.55a.037.037,0,0,1,.008.043.048.048,0,0,1-.042.025c-.335.009-.674.014-1.007.014Zm-1.955-1.819c.206.012.41.023.609.032.167.007.316.011.443.011.068,0,.129,0,.181,0a1.1,1.1,0,0,0,.161-.014.459.459,0,0,0,.227-.1.252.252,0,0,0,.083-.188.239.239,0,0,0-.1-.206h0a.617.617,0,0,0-.3-.113l-.052,0c-.088-.007-.23-.013-.444-.023l-.148-.007c-.212-.01-.428-.022-.644-.035C91.279,113.669,91.275,113.889,91.272,114.105Zm-74.437,1.725a3.238,3.238,0,0,1-1.056-.3,2.523,2.523,0,0,1-.461-.3,1.543,1.543,0,0,1-.537-.77,1.407,1.407,0,0,1-.053-.371,1.351,1.351,0,0,1,.045-.374,1,1,0,0,1,.536-.638,1.9,1.9,0,0,1,.46-.168,3.068,3.068,0,0,1,.688-.071c.135,0,.28.007.429.02a3.168,3.168,0,0,1,1.421.416,1.309,1.309,0,0,1,.5.567.036.036,0,0,1,0,.036.049.049,0,0,1-.036.02c-.309.03-.62.056-.924.078a.048.048,0,0,1-.049-.028.686.686,0,0,0-.332-.352,1.548,1.548,0,0,0-.615-.176c-.071-.007-.139-.01-.2-.01a1.157,1.157,0,0,0-.591.137.506.506,0,0,0-.2.213.931.931,0,0,0-.082.429,1.228,1.228,0,0,0,.091.483.775.775,0,0,0,.2.278,1.427,1.427,0,0,0,.783.315,1.593,1.593,0,0,0,.184.011,1.069,1.069,0,0,0,.43-.082.683.683,0,0,0,.364-.391v0a.049.049,0,0,1,.058-.028h0c.3.083.6.163.9.238a.047.047,0,0,1,.03.021.036.036,0,0,1,0,.033,1.267,1.267,0,0,1-.73.665,2.283,2.283,0,0,1-.8.129A3.814,3.814,0,0,1,16.835,115.831Zm79.618-.085h0a.034.034,0,0,1,0-.011c-.008-.934.009-1.883.049-2.822a.044.044,0,0,1,.044-.039c.295-.022.592-.048.885-.077a.053.053,0,0,1,.038.011.038.038,0,0,1,.015.031c-.028.759-.045,1.528-.049,2.287.707-.077,1.424-.174,2.132-.29a.054.054,0,0,1,.04.009.039.039,0,0,1,.017.032l-.008.433v.044a.043.043,0,0,1-.039.04c-1.025.167-2.058.3-3.069.382h0A.047.047,0,0,1,96.453,115.746Zm-8.958-.188a2.909,2.909,0,0,1-1.55-.648,1.58,1.58,0,0,1-.57-1.227.032.032,0,0,1,0-.006,1.1,1.1,0,0,1,.618-1.078,1.671,1.671,0,0,1,.577-.178,2.773,2.773,0,0,1,.353-.021,4.273,4.273,0,0,1,.6.045,3.089,3.089,0,0,1,1.558.606,1.583,1.583,0,0,1,.439.539,1.491,1.491,0,0,1,.142.666,1.192,1.192,0,0,1-.6,1.085A2.06,2.06,0,0,1,88,115.6,3.639,3.639,0,0,1,87.495,115.558Zm-.822-2.41a.714.714,0,0,0-.311.669.026.026,0,0,1,0,.005,1.014,1.014,0,0,0,.32.777,1.506,1.506,0,0,0,.83.372,1.746,1.746,0,0,0,.245.018,1.059,1.059,0,0,0,.576-.151.766.766,0,0,0,.323-.692.943.943,0,0,0-.308-.762,1.561,1.561,0,0,0-.838-.351,2.007,2.007,0,0,0-.279-.021A1.062,1.062,0,0,0,86.673,113.148Zm-59.055,2.24h0a.042.042,0,0,1-.03-.037c-.027-.89-.015-1.8.034-2.7a.044.044,0,0,1,.04-.039c.3-.042.614-.088.926-.137a.053.053,0,0,1,.04.009.038.038,0,0,1,.016.033c-.037.722-.052,1.45-.045,2.167.7-.124,1.43-.265,2.243-.429a.054.054,0,0,1,.041.008.04.04,0,0,1,.018.032q0,.223,0,.446a.043.043,0,0,1-.037.04c-.839.171-1.583.316-2.273.442-.322.059-.64.115-.944.166h-.009A.055.055,0,0,1,27.618,115.388Zm-13.231,0c-.33-.064-.665-.134-1-.208a.047.047,0,0,1-.031-.022c-.121-.225-.245-.45-.369-.67-.576-.129-1.161-.275-1.74-.433-.113.148-.228.3-.353.454a.052.052,0,0,1-.055.016c-.309-.09-.626-.186-.944-.286a.044.044,0,0,1-.029-.027.037.037,0,0,1,.007-.036,24.619,24.619,0,0,0,1.654-2.1.051.051,0,0,1,.053-.018c.316.074.639.145.961.211a.048.048,0,0,1,.03.02c.72,1.091,1.312,2.058,1.864,3.045a.036.036,0,0,1,0,.015.039.039,0,0,1-.017.034.053.053,0,0,1-.031.01Zm-2.808-1.768c.355.091.712.178,1.065.259-.18-.319-.366-.639-.566-.974C11.919,113.146,11.751,113.386,11.579,113.622Zm88.106,1.732a.037.037,0,0,1-.005-.043l.048-.086c.564-1.009,1.148-2.052,1.647-3.06a.046.046,0,0,1,.032-.024c.3-.066.594-.137.886-.212a.052.052,0,0,1,.054.017,26.316,26.316,0,0,1,1.659,2.434.036.036,0,0,1,0,.031.044.044,0,0,1-.024.024l-.007,0c-.3.082-.611.162-.913.237a.051.051,0,0,1-.056-.021c-.1-.172-.205-.353-.319-.537-.544.134-1.1.257-1.641.368-.131.253-.262.5-.363.7a.047.047,0,0,1-.033.023c-.305.058-.615.113-.921.164h-.009A.051.051,0,0,1,99.685,115.354Zm1.688-1.5c.336-.072.675-.149,1.008-.23-.144-.233-.307-.488-.506-.795C101.727,113.146,101.561,113.483,101.373,113.857Zm-70.383.858a.036.036,0,0,1,0-.044c.175-.294.346-.578.526-.879l.005-.009c.437-.728.85-1.415,1.255-2.138a.047.047,0,0,1,.031-.022c.3-.069.613-.141.957-.223a.052.052,0,0,1,.051.015l.27.32c.609.721.727.883,1.044,1.315.122.166.273.372.493.665a.036.036,0,0,1,0,.045.049.049,0,0,1-.034.018c-.291.058-.6.122-.982.2a.051.051,0,0,1-.052-.019c-.13-.189-.244-.35-.358-.5l-.132.029-.011,0c-.532.116-1.083.236-1.626.352l-.315.556-.062.11a.047.047,0,0,1-.032.022l-.456.1-.519.107h-.011A.051.051,0,0,1,30.99,114.715Zm1.776-1.48c.391-.085.775-.17,1.083-.239-.193-.265-.382-.518-.547-.738C33.139,112.562,32.964,112.883,32.766,113.235Zm49.73,1.339c-.28-.065-.564-.132-.843-.2a.048.048,0,0,1-.022-.011.038.038,0,0,1-.014-.029c.01-.964.008-1.944-.006-2.912a.039.039,0,0,1,.019-.033.054.054,0,0,1,.042-.007c.458.108.916.212,1.36.309a8.669,8.669,0,0,1,1.026.26,1.646,1.646,0,0,1,.632.421.92.92,0,0,1,.259.642.646.646,0,0,1-.153.451.808.808,0,0,1-.386.232,1.419,1.419,0,0,1-.461.05,6.572,6.572,0,0,1-.893-.148l-.493-.11c0,.345,0,.7-.007,1.046a.039.039,0,0,1-.019.032.053.053,0,0,1-.029.008Zm.067-1.665.428.1a3.517,3.517,0,0,0,.63.1h.028a.4.4,0,0,0,.236-.077.211.211,0,0,0,.083-.178.359.359,0,0,0-.125-.264.853.853,0,0,0-.326-.19c-.1-.033-.283-.079-.608-.15l-.351-.078C82.562,112.411,82.563,112.661,82.564,112.908Zm-73.14,1.2c-.286-.093-.582-.192-.88-.3a.042.042,0,0,1-.03-.038c0-.357-.012-.718-.022-1.075-.536-.183-1.08-.38-1.618-.587.009.344.021.694.034,1.04a.039.039,0,0,1-.021.035.054.054,0,0,1-.046,0c-.279-.107-.568-.22-.859-.336a.041.041,0,0,1-.027-.041c-.042-.849-.057-1.7-.047-2.526a.04.04,0,0,1,.023-.035.054.054,0,0,1,.046,0c.274.117.557.234.841.345a.042.042,0,0,1,.028.037c0,.318.009.641.016.962.53.206,1.072.4,1.614.587-.011-.309-.024-.624-.039-.936a.039.039,0,0,1,.02-.035.054.054,0,0,1,.045,0c.29.1.585.19.877.278a.042.042,0,0,1,.032.037c.051.852.077,1.709.078,2.547a.04.04,0,0,1-.021.034.054.054,0,0,1-.027.007Zm40.721-2.983-.32-1.916a.037.037,0,0,1,.009-.031.051.051,0,0,1,.032-.016c.3-.033.6-.064.9-.092.112-.011.213-.016.3-.016a1.354,1.354,0,0,1,.184.011.956.956,0,0,1,.411.155.907.907,0,0,1,.282.309,1.222,1.222,0,0,1,.135.462,1.087,1.087,0,0,1-.027.429.856.856,0,0,1-.221.377.914.914,0,0,1-.328.192,1.759,1.759,0,0,1-.423.081c-.293.028-.589.058-.879.09h-.007A.046.046,0,0,1,50.144,111.129Zm.494-1.631-.171.017.183,1.19.306-.03a1.547,1.547,0,0,0,.272-.043.407.407,0,0,0,.161-.086.342.342,0,0,0,.09-.176,1.012,1.012,0,0,0,0-.344.934.934,0,0,0-.088-.325.421.421,0,0,0-.147-.159.488.488,0,0,0-.215-.063l-.059,0C50.9,109.477,50.784,109.484,50.638,109.5ZM62.1,111.1l-.444-.043a.051.051,0,0,1-.032-.015.038.038,0,0,1-.01-.031l.181-1.3a1.968,1.968,0,0,1-.562.186.053.053,0,0,1-.042-.01.038.038,0,0,1-.015-.035l.042-.335a.044.044,0,0,1,.038-.036,1.555,1.555,0,0,0,.4-.14.754.754,0,0,0,.317-.265.049.049,0,0,1,.047-.021l.379.037a.05.05,0,0,1,.032.016.037.037,0,0,1,.01.031l-.291,1.927a.046.046,0,0,1-.047.036Zm-1.643-.13-.432-.029a.052.052,0,0,1-.026-.009.04.04,0,0,1-.019-.036l.033-.347c-.3-.019-.612-.036-.915-.05a.051.051,0,0,1-.033-.014.038.038,0,0,1-.012-.03l.023-.324a.039.039,0,0,1,.011-.023c.373-.393.76-.786,1.151-1.168a.052.052,0,0,1,.039-.014l.394.027a.05.05,0,0,1,.033.014.037.037,0,0,1,.011.03l-.127,1.181.247.018a.051.051,0,0,1,.033.015.037.037,0,0,1,.011.03l-.037.325a.046.046,0,0,1-.051.037l-.245-.018-.037.347a.046.046,0,0,1-.047.037Zm-.81-.851.406.024.047-.491C59.947,109.8,59.795,109.959,59.642,110.118Zm-7.14.809a.039.039,0,0,1-.013-.027l-.2-1.925a.037.037,0,0,1,.011-.03.051.051,0,0,1,.033-.014c.6-.041,1.214-.073,1.818-.1a.045.045,0,0,1,.05.039l.018.327a.038.038,0,0,1-.012.03.051.051,0,0,1-.033.013c-.419.016-.843.036-1.262.06l.031.346c.384-.023.774-.042,1.161-.056a.046.046,0,0,1,.05.039l.019.325a.038.038,0,0,1-.012.03.051.051,0,0,1-.033.013c-.382.015-.768.034-1.148.056l.04.443c.419-.024.845-.045,1.267-.06a.045.045,0,0,1,.05.039l.018.325a.038.038,0,0,1-.013.03.051.051,0,0,1-.033.013c-.588.021-1.184.052-1.77.092h0A.051.051,0,0,1,52.5,110.927Zm5.6-.048a1.015,1.015,0,0,1-.553-.161.547.547,0,0,1-.257-.486.516.516,0,0,1,.111-.308.593.593,0,0,1,.238-.177.511.511,0,0,1-.184-.147.417.417,0,0,1-.082-.258.47.47,0,0,1,.217-.384.916.916,0,0,1,.531-.137h.051a.927.927,0,0,1,.565.171.453.453,0,0,1,.186.4.415.415,0,0,1-.112.259.568.568,0,0,1-.179.127.6.6,0,0,1,.219.176.46.46,0,0,1,.093.315.59.59,0,0,1-.253.455.9.9,0,0,1-.548.159Zm-.188-.848a.285.285,0,0,0,0,.389.292.292,0,0,0,.2.079h.013a.284.284,0,0,0,.188-.063.277.277,0,0,0,.09-.208.23.23,0,0,0-.07-.191.29.29,0,0,0-.2-.077h-.015A.261.261,0,0,0,57.912,110.031Zm.065-.786a.167.167,0,0,0-.069.134h0a.169.169,0,0,0,.057.144.274.274,0,0,0,.174.056h.014a.276.276,0,0,0,.167-.046.176.176,0,0,0,.071-.142.159.159,0,0,0-.057-.138h0a.262.262,0,0,0-.172-.057h-.014A.275.275,0,0,0,57.976,109.245Zm-1.324,1.567h-.448a.044.044,0,0,1-.048-.041l-.005-1.311a1.878,1.878,0,0,1-.532.238.055.055,0,0,1-.043-.006.04.04,0,0,1-.02-.033l-.007-.336a.042.042,0,0,1,.033-.04,1.471,1.471,0,0,0,.38-.177.7.7,0,0,0,.277-.293.048.048,0,0,1,.044-.026h.382a.051.051,0,0,1,.034.012.038.038,0,0,1,.014.029l-.015,1.942a.045.045,0,0,1-.048.041Zm-12.032-2.06c-.1-.471-.179-.949-.25-1.423a1.6,1.6,0,0,1-.482.294.055.055,0,0,1-.043,0,.042.042,0,0,1-.024-.03c-.02-.123-.039-.247-.057-.367a.04.04,0,0,1,.028-.043,1.26,1.26,0,0,0,.344-.216.686.686,0,0,0,.23-.337.046.046,0,0,1,.043-.031l.37-.025a.046.046,0,0,1,.051.037c.083.7.193,1.4.328,2.087a.038.038,0,0,1-.015.037.052.052,0,0,1-.03.011l-.439.042h-.005A.046.046,0,0,1,44.621,108.753Zm23.66-.008a1.161,1.161,0,0,1-.8-.384,1.032,1.032,0,0,1-.2-.833h0a1.285,1.285,0,0,1,.185-.537,1.109,1.109,0,0,1,.265-.277,1.047,1.047,0,0,1,.347-.169,1.413,1.413,0,0,1,.37-.047c.055,0,.112,0,.169.008a1.176,1.176,0,0,1,.829.385,1.018,1.018,0,0,1,.194.866,1.154,1.154,0,0,1-.464.786,1.21,1.21,0,0,1-.709.212A1.741,1.741,0,0,1,68.281,108.745Zm-.175-1.672a.738.738,0,0,0-.239.49.027.027,0,0,1,0,0,.686.686,0,0,0,.092.525.544.544,0,0,0,.4.211.746.746,0,0,0,.08,0,.587.587,0,0,0,.371-.125.76.76,0,0,0,.258-.5.666.666,0,0,0-.086-.528.552.552,0,0,0-.411-.205c-.027,0-.053,0-.078,0A.59.59,0,0,0,68.106,107.073ZM45.94,108.465a1.251,1.251,0,0,1-.371-.8,1.11,1.11,0,0,1,.137-.864.835.835,0,0,1,.635-.308l.068,0a.784.784,0,0,1,.425.114.672.672,0,0,1,.286.385.031.031,0,0,1,0,.007h0a.042.042,0,0,1-.039.044h0l-.431.07a.048.048,0,0,1-.055-.031.242.242,0,0,0-.088-.145.227.227,0,0,0-.149-.035.248.248,0,0,0-.194.109.6.6,0,0,0-.06.344.588.588,0,0,1,.35-.135.781.781,0,0,1,.543.163.721.721,0,0,1,.282.492.656.656,0,0,1-.144.546.771.771,0,0,1-.537.249q-.044,0-.086,0A.871.871,0,0,1,45.94,108.465Zm.488-.871a.229.229,0,0,0-.171.088.3.3,0,0,0-.043.239h0a.41.41,0,0,0,.133.265.291.291,0,0,0,.187.074h.021a.207.207,0,0,0,.157-.083.348.348,0,0,0,.033-.257.4.4,0,0,0-.117-.26.264.264,0,0,0-.177-.067Zm20.581.984-.556-.052a.048.048,0,0,1-.038-.023c-.086-.155-.178-.314-.271-.475a2.238,2.238,0,0,0-.2-.314.288.288,0,0,0-.113-.083.761.761,0,0,0-.219-.038l-.049,0c-.033.27-.068.543-.106.813a.046.046,0,0,1-.052.036l-.463-.035a.048.048,0,0,1-.043-.026h0a.035.035,0,0,1,0-.021c.089-.674.165-1.358.225-2.033a.046.046,0,0,1,.051-.038c.335.019.675.04,1.009.063a1.929,1.929,0,0,1,.563.1.546.546,0,0,1,.276.236.559.559,0,0,1,.068.356.582.582,0,0,1-.22.4.806.806,0,0,1-.4.152.921.921,0,0,1,.147.138,2.074,2.074,0,0,1,.225.364c.073.14.147.285.219.428a.036.036,0,0,1-.006.041.05.05,0,0,1-.038.017Zm-1.4-1.4.3.021c.132.01.232.014.305.014a.572.572,0,0,0,.108-.007.221.221,0,0,0,.118-.063.219.219,0,0,0,.056-.129.179.179,0,0,0-.036-.144h0a.239.239,0,0,0-.141-.078c-.018,0-.087-.013-.34-.03l-.325-.022C65.641,106.889,65.625,107.036,65.609,107.183Zm-17.08,1.259c-.092-.666-.168-1.344-.227-2.012a.036.036,0,0,1,0-.021.048.048,0,0,1,.041-.025l.879-.046c.065,0,.126-.005.182-.005a1.574,1.574,0,0,1,.287.022.916.916,0,0,1,.394.176.938.938,0,0,1,.264.327,1.34,1.34,0,0,1,.12.478,1.181,1.181,0,0,1-.035.44.8.8,0,0,1-.555.572,1.679,1.679,0,0,1-.423.071l-.879.06h0A.046.046,0,0,1,48.529,108.442Zm.549-1.674-.167.009c.038.414.083.833.133,1.246l.305-.019a1.454,1.454,0,0,0,.271-.035.39.39,0,0,0,.16-.083.353.353,0,0,0,.093-.179,1.112,1.112,0,0,0,.011-.356,1.026,1.026,0,0,0-.077-.34.433.433,0,0,0-.138-.17.461.461,0,0,0-.207-.074,1.081,1.081,0,0,0-.133-.006C49.263,106.76,49.178,106.763,49.077,106.768Zm15.468,1.612c-.578-.04-1.17-.075-1.757-.1a.05.05,0,0,1-.036-.017.037.037,0,0,1-.008-.028c.066-.666.121-1.341.164-2.007a.045.045,0,0,1,.05-.039c.59.022,1.184.049,1.763.08a.051.051,0,0,1,.033.014.037.037,0,0,1,.012.03c-.009.112-.019.228-.03.344a.046.046,0,0,1-.051.038c-.4-.023-.817-.043-1.229-.062-.009.119-.019.242-.029.365.379.018.76.038,1.133.06a.05.05,0,0,1,.033.014.037.037,0,0,1,.011.03c-.011.112-.023.228-.035.342a.046.046,0,0,1-.051.037c-.372-.023-.751-.043-1.128-.062-.014.156-.029.312-.044.467.418.022.839.047,1.25.074a.051.051,0,0,1,.033.015.038.038,0,0,1,.011.031c-.013.112-.028.227-.042.342a.046.046,0,0,1-.047.037ZM50.858,108.3h0a.035.035,0,0,1-.008-.019c-.064-.658-.118-1.325-.162-1.985a.038.038,0,0,1,.012-.03.051.051,0,0,1,.033-.014c.6-.026,1.192-.049,1.768-.069a.045.045,0,0,1,.049.039q.008.167.017.333a.037.037,0,0,1-.013.03.051.051,0,0,1-.033.013c-.4.014-.818.031-1.233.048.008.119.016.239.025.357.382-.017.765-.033,1.139-.047a.046.046,0,0,1,.05.039q.01.166.019.332a.038.038,0,0,1-.012.03.051.051,0,0,1-.033.013c-.376.015-.756.031-1.132.048.012.153.024.306.037.457.42-.02.842-.039,1.257-.055a.045.045,0,0,1,.05.039q.011.166.022.332a.037.037,0,0,1-.012.03.051.051,0,0,1-.033.014c-.58.024-1.173.052-1.763.084h0A.051.051,0,0,1,50.858,108.3Zm11.676-.054-.559-.025a.049.049,0,0,1-.039-.021c-.1-.152-.2-.3-.3-.447a2.293,2.293,0,0,0-.223-.3.3.3,0,0,0-.118-.076.83.83,0,0,0-.222-.027h-.049c-.015.263-.033.529-.051.791a.045.045,0,0,1-.049.038l-.468-.014a.045.045,0,0,1-.046-.039.032.032,0,0,1,0-.01c.041-.657.075-1.323.1-1.98a.045.045,0,0,1,.048-.04h0c.334.006.675.014,1.012.022a2.012,2.012,0,0,1,.567.073.555.555,0,0,1,.289.218.535.535,0,0,1,.089.342.549.549,0,0,1-.2.394.8.8,0,0,1-.387.164.932.932,0,0,1,.153.125,2.07,2.07,0,0,1,.248.343c.082.132.166.268.248.4a.036.036,0,0,1,0,.041.05.05,0,0,1-.04.019Zm-1.49-1.293.3.008.193,0a1.082,1.082,0,0,0,.22-.013.218.218,0,0,0,.114-.066.2.2,0,0,0,.048-.126.17.17,0,0,0-.044-.136h0a.246.246,0,0,0-.146-.07c-.022,0-.1-.009-.342-.016l-.326-.008C61.059,106.669,61.052,106.811,61.044,106.954Zm-7.067,1.237a.05.05,0,0,1-.039-.018h0a.037.037,0,0,1-.008-.022c-.029-.653-.055-1.314-.077-1.966a.044.044,0,0,1,.046-.042c.552-.015,1.1-.027,1.635-.036a.05.05,0,0,1,.034.012.039.039,0,0,1,.015.029q0,.131,0,.262v.07a.044.044,0,0,1-.047.042c-.362.006-.732.014-1.1.023q.006.192.012.383c.313-.008.629-.015.939-.02a.051.051,0,0,1,.034.011.039.039,0,0,1,.015.029l.007.332a.044.044,0,0,1-.047.042c-.309.006-.623.013-.934.02.009.266.018.533.028.794a.038.038,0,0,1-.013.029.051.051,0,0,1-.033.013l-.468.013Zm1.936-.051h0a.039.039,0,0,1-.019-.036c-.007-.65-.015-1.31-.024-1.961a.044.044,0,0,1,.047-.041c.595-.009,1.189-.014,1.768-.016h0a.051.051,0,0,1,.034.012.038.038,0,0,1,.014.029q0,.167,0,.333a.045.045,0,0,1-.048.041c-.412,0-.827,0-1.233.008q0,.177,0,.354c.382,0,.765-.007,1.138-.007h0a.053.053,0,0,1,.034.012.038.038,0,0,1,.014.029v.011q0,.16,0,.32a.045.045,0,0,1-.048.041c-.377,0-.758,0-1.133.007,0,.15,0,.3,0,.453.393,0,.787-.006,1.173-.006h.083a.051.051,0,0,1,.034.012.038.038,0,0,1,.014.029q0,.166-.006.332a.045.045,0,0,1-.048.04h-.162c-.525,0-1.064,0-1.6.011h0A.053.053,0,0,1,55.914,108.14Zm2.986,0c-.262,0-.527-.006-.789-.007a.052.052,0,0,1-.034-.013.038.038,0,0,1-.013-.029c.016-.653.028-1.316.035-1.97a.036.036,0,0,1,0-.012.048.048,0,0,1,.045-.029c.3,0,.624,0,.953,0a3.137,3.137,0,0,1,.428.025.721.721,0,0,1,.265.09.58.58,0,0,1,.192.182.42.42,0,0,1,.071.254.454.454,0,0,1-.109.277.568.568,0,0,1-.17.141.6.6,0,0,1,.245.167.456.456,0,0,1,.11.327.57.57,0,0,1-.094.28.635.635,0,0,1-.228.215.82.82,0,0,1-.34.094c-.056,0-.163.006-.337.006Zm-.261-.418.387,0h.108a1.656,1.656,0,0,0,.206-.008h0a.265.265,0,0,0,.147-.064.211.211,0,0,0,.024-.268.233.233,0,0,0-.122-.077,1.7,1.7,0,0,0-.4-.031l-.336,0C58.646,107.428,58.642,107.577,58.638,107.728Zm.022-.856.264,0h.149c.1,0,.163,0,.192,0a.3.3,0,0,0,.166-.057.159.159,0,0,0,.061-.126.151.151,0,0,0-.045-.121h0a.241.241,0,0,0-.147-.058c-.027,0-.115-.008-.4-.01h-.228C58.665,106.622,58.663,106.747,58.66,106.871ZM58.621,106.456Zm48.779-1.282h0c-3.21-2.233-7.487-4.2-9.145-7.066a2.769,2.769,0,0,1-.4-1.327c-.286-3.182-.6-6.321-.87-9.588a2.01,2.01,0,0,1,.539-.919c.862,5.459,8.112,7,11.648,9.882a8.068,8.068,0,0,1,2.944,5.446c-.113,1.757-1.812,5.367-3.723,5.574A3.043,3.043,0,0,0,107.4,105.173ZM98.782,97c.188,1.056.638,1.684,2.145,2.99a25.826,25.826,0,0,0,4.905,3.026,10.2,10.2,0,0,1,3.035,2.235c1.253.068,1.87-2.419,2.034-3.265v0a3.979,3.979,0,0,0-.568-2.847c-2.135-3.52-6.692-5.021-10.009-6.961a8.15,8.15,0,0,1-2.072-1.856A66.708,66.708,0,0,0,98.782,97ZM4.416,106.182l0,0a6.294,6.294,0,0,1-1.926-6c1.176-3.195,4.217-5.648,7.611-7.077a12.288,12.288,0,0,0,5.681-4.042A10.352,10.352,0,0,0,17,86.184a6.66,6.66,0,0,1,.421.991c-.365,3.375-.371,6.457-.827,9.691-.4,5.323-10.167,6.692-10.575,10.047a1.09,1.09,0,0,1-.376.073C5.16,106.988,4.864,106.579,4.416,106.182ZM6.4,96.461c-1.781,1.585-3.371,3.51-2.824,5.82.334,1.406,1.338,3.1,1.85,3.118a14.531,14.531,0,0,1,3.546-2.558v0c2.261-1.408,5.3-2.622,6.436-4.964.334-.746.494-3.32.71-7.471C14.518,92.994,9.142,93.823,6.4,96.461Zm6.555-43.855c0-28.2,19.721-51.146,43.962-51.146h.02C81.175,1.46,100.9,24.4,100.9,52.607s-19.729,51.13-43.962,51.13C32.682,103.736,12.961,80.8,12.953,52.607ZM56.916,2.444c-23.611,0-42.82,22.5-42.82,50.163s19.217,50.146,42.82,50.146c23.623,0,42.831-22.5,42.839-50.147S80.545,2.444,56.935,2.444V1.952Zm1.174,98.55a.111.111,0,0,1-.034-.111L59.637,95.1a.137.137,0,0,1,.119-.094l1.369-.17a.152.152,0,0,1,.144.06l3.491,5.164a.108.108,0,0,1,.005.115.143.143,0,0,1-.108.068l-1.409.173a.151.151,0,0,1-.145-.061l-.725-1.1-2.369.287-.3,1.226a.136.136,0,0,1-.12.1l-1.373.168H58.2A.154.154,0,0,1,58.09,100.994Zm2.227-2.68,1.345-.165-.942-1.476Zm-13.45,1.277a3.139,3.139,0,0,1-1.992-1.4,2.248,2.248,0,0,1-.285-1.071,3.218,3.218,0,0,1,.245-1.215,3.5,3.5,0,0,1,.843-1.31,3.176,3.176,0,0,1,.9-.583,2.933,2.933,0,0,1,1.035-.256c.078-.005.158-.008.237-.008a4.508,4.508,0,0,1,1.228.183,3.12,3.12,0,0,1,1.972,1.408,2.251,2.251,0,0,1,.289,1.087,3.294,3.294,0,0,1-.252,1.239,3.594,3.594,0,0,1-.669,1.112,2.941,2.941,0,0,1-.994.718,3.352,3.352,0,0,1-1.356.28A4.319,4.319,0,0,1,46.866,99.591Zm.469-4.436a2.038,2.038,0,0,0-.933,1.153,1.663,1.663,0,0,0-.054,1.4h0a1.438,1.438,0,0,0,.957.741h0a1.9,1.9,0,0,0,.531.079,1.672,1.672,0,0,0,.746-.177h0a2.051,2.051,0,0,0,.955-1.161,1.715,1.715,0,0,0,.068-1.391,1.459,1.459,0,0,0-.97-.732,2.1,2.1,0,0,0-.566-.083A1.669,1.669,0,0,0,47.335,95.155Zm19.3,4.482-2.584-5.081a.107.107,0,0,1,0-.095.134.134,0,0,1,.077-.068l1.8-.664a.158.158,0,0,1,.168.037l2.5,2.7-.611-3.4a.121.121,0,0,1,.085-.132l1.8-.666a.163.163,0,0,1,.056-.01.145.145,0,0,1,.131.074l2.581,5.081a.107.107,0,0,1,0,.095.134.134,0,0,1-.077.068l-1.116.412a.153.153,0,0,1-.187-.064l-1.575-3.1.665,3.466a.121.121,0,0,1-.085.133l-1.156.425a.158.158,0,0,1-.169-.038l-2.505-2.78,1.572,3.094a.108.108,0,0,1,0,.095.134.134,0,0,1-.077.068l-1.116.413a.162.162,0,0,1-.056.01A.146.146,0,0,1,66.639,99.637Zm-24.45-1.7-1.322-.711a.121.121,0,0,1-.067-.1l-.048-1.452a6.942,6.942,0,0,0-.069-.983.708.708,0,0,0-.159-.32,2.045,2.045,0,0,0-.483-.324l-.105-.057-1.37,1.853a.157.157,0,0,1-.2.038l-1.107-.6a.125.125,0,0,1-.063-.077.109.109,0,0,1,.019-.093l3.464-4.68a.157.157,0,0,1,.2-.038l2.333,1.256a4.83,4.83,0,0,1,1.222.843v0a1.289,1.289,0,0,1,.334.868,1.559,1.559,0,0,1-.33.931,1.866,1.866,0,0,1-1.092.727,1.963,1.963,0,0,1-.465.054,2.622,2.622,0,0,1-.7-.1,2.119,2.119,0,0,1,.161.466,5.369,5.369,0,0,1,.074,1.122l-.011,1.274a.122.122,0,0,1-.074.107.163.163,0,0,1-.145,0Zm-1.547-4.9.7.376a4.778,4.778,0,0,0,.991.461h.006a.63.63,0,0,0,.364-.019h0a.718.718,0,0,0,.31-.246.473.473,0,0,0,.113-.374.556.556,0,0,0-.235-.334h0c-.073-.055-.335-.2-.777-.444l-.744-.4Zm34.02,3.276L70.8,91.863a.11.11,0,0,1-.027-.092.122.122,0,0,1,.057-.081L74.7,89.248a.159.159,0,0,1,.2.026l.653.755a.111.111,0,0,1,.027.092.121.121,0,0,1-.057.081l-2.692,1.7.678.789,2.5-1.58a.159.159,0,0,1,.2.026l.65.748a.111.111,0,0,1,.027.092.122.122,0,0,1-.057.081l-2.5,1.579.877,1.013,2.8-1.766a.159.159,0,0,1,.2.026l.648.748a.11.11,0,0,1,.027.092.122.122,0,0,1-.057.081l-3.964,2.506a.158.158,0,0,1-.084.024A.152.152,0,0,1,74.661,96.313ZM23.531,52.607c0-22.773,14.975-41.3,33.381-41.3,18.426,0,33.4,18.527,33.4,41.3a.428.428,0,0,1-.019.127c-.055,22.716-15.008,41.174-33.381,41.174C38.506,93.907,23.531,75.38,23.531,52.607Zm1.142,0c0,22.231,14.462,40.317,32.239,40.317S89.152,74.838,89.152,52.607a.428.428,0,0,1,.019-.126c-.055-22.173-14.5-40.192-32.238-40.192C39.136,12.289,24.674,30.375,24.674,52.607Zm9.552,40.476-.958-.762a.117.117,0,0,1-.046-.086.114.114,0,0,1,.038-.089l3.561-3.282-1.3-1.031a.116.116,0,0,1-.046-.086.113.113,0,0,1,.038-.088l.743-.691a.16.16,0,0,1,.2-.007l3.784,2.992a.116.116,0,0,1,.046.086.114.114,0,0,1-.038.089l-.747.688a.16.16,0,0,1-.2.007l-1.306-1.033-3.567,3.286a.154.154,0,0,1-.1.039A.156.156,0,0,1,34.225,93.083Zm46.123-.565-4.723-3.792a.116.116,0,0,1-.045-.086.114.114,0,0,1,.039-.088l1.886-1.715a4.637,4.637,0,0,1,1.2-.861,1.88,1.88,0,0,1,1.058-.118,2.162,2.162,0,0,1,1.007.453,1.551,1.551,0,0,1,.636,1.05h0a1.517,1.517,0,0,1-.278.967,3.412,3.412,0,0,1,.567-.05v0a8.655,8.655,0,0,1,1.308.156l1.464.246a.138.138,0,0,1,.109.083.111.111,0,0,1-.033.122l-1.073.973a.157.157,0,0,1-.127.037l-1.682-.236h0a9.177,9.177,0,0,0-1.14-.128,1.059,1.059,0,0,0-.4.073,2.2,2.2,0,0,0-.469.342l-.084.076,1.872,1.5a.117.117,0,0,1,.045.086.114.114,0,0,1-.039.088l-.9.815a.16.16,0,0,1-.2.005Zm-1.47-5.176c-.07.051-.278.226-.654.568l-.6.546.988.8.57-.516a3.977,3.977,0,0,0,.715-.74v0a.4.4,0,0,0,.044-.307v0a.57.57,0,0,0-.219-.3.739.739,0,0,0-.414-.17H79.3A.747.747,0,0,0,78.878,87.342ZM7.82,88.513c-2.753-1.2-5.607-2.494-6.52-5.087A61.358,61.358,0,0,1,0,74.713c2.995,2.822,7.447,4.529,10.407,5.723,4.827,1.64,7.062,6.107,4.084,9.307-.934.785-2.013,1.972-3.334,1.984v0C10.7,90.006,9.444,89.186,7.82,88.513ZM2.085,82.755c.739,2.675,4.438,4.28,6.478,5.133,1.3.566,2.9,1.552,3.361,2.575,1.9-1.214,3.092-3.5,2.623-5.251V85.2a5.51,5.51,0,0,0-1.474-2.215c-2.154-1.756-4.81-2.33-7.22-3.528a25.436,25.436,0,0,1-4.718-2.839A46.548,46.548,0,0,0,2.085,82.755Zm100.482,8.866v0c-2.438-1.171-4.106-3.093-4.114-5.387a5.053,5.053,0,0,1,1.653-3.635c.809-.817,1.545-1.228,3.883-2.169,5.023-2.022,6.909-2.876,7.452-3.375,1-.727,1.7-1.7,2.766-2.348h.184a15.127,15.127,0,0,1-.21,2.522c-.46,2.4-.448,5.231-1.554,7.254-2.088,3.152-5.834,3.129-8.3,5.284-.8.834-.875,1.9-1.526,1.9A.785.785,0,0,1,102.567,91.621Zm6.732-12.53c-3.35,2.035-8.051,2.3-9.363,5.776-.6,1.9.472,3.892,1.906,5.116a5.456,5.456,0,0,0,.6.464,8.7,8.7,0,0,1,4.023-2.819v0c2.234-1,4.844-2.3,5.718-4.378a34.121,34.121,0,0,0,1.128-6.59C112.043,77.475,110.6,78.412,109.3,79.091ZM30.483,89.92l-.81-.879a.11.11,0,0,1-.022-.119l1.534-3.583-2.926,1.966a.159.159,0,0,1-.2-.021l-.752-.818a.111.111,0,0,1-.03-.091.12.12,0,0,1,.054-.082l5.1-3.421a.157.157,0,0,1,.088-.026.152.152,0,0,1,.112.046l.794.857a.109.109,0,0,1,.022.12l-1.593,3.658,3.007-2.02a.159.159,0,0,1,.2.021l.754.817a.111.111,0,0,1,.03.091.12.12,0,0,1-.054.083l-5.1,3.421a.158.158,0,0,1-.088.026A.153.153,0,0,1,30.483,89.92Zm25.379-1.591h0c-3.592-.62-7.166-1.37-9.717-3.408a21.712,21.712,0,0,0,1.729-2.911c1.072-1.06,1.9-.74,3.361-1.7,1.6-1.205,2.98-2.594,4.633-3.758a50.56,50.56,0,0,1,4.383-2.74,38.536,38.536,0,0,1,10.672-3.433,8.388,8.388,0,0,0,1.385-.266l-.664-.7a10.942,10.942,0,0,1-2.564-4.083c-.576-1.543-1-2.721-1.069-3C66.586,60.76,64.974,60,65.235,58.351a6.138,6.138,0,0,0,1.319,1.641,6.469,6.469,0,0,0,4.265,1.55c2.322.249,5.628-1.711,6.657-3.07.248-.406.242-.535-.108-.754a4.144,4.144,0,0,0,.555-3.051,5.26,5.26,0,0,0-2.463-3.654c-1.272-.676-2.213-.223-3.523-.05-.487,0-.551-.375-.4-2.361l.08-1.078a15.569,15.569,0,0,1-2.213-.467,7.256,7.256,0,0,0-1.863-.163c-.967.137-1.844,1.564-2.589,1.46a2.473,2.473,0,0,0-1.229-2.379,1.8,1.8,0,0,0-2.429,1.146,1.257,1.257,0,0,0,.358,1.249c.472.355,1.153,1.092,1.73.637.463-.372.6.055.247.761a3.273,3.273,0,0,0,2.471,3.7,6.114,6.114,0,0,0,6.116-1.392c.306.2.169.314.02.6-2.968,3.634-9.119,2.115-9.42-1.78l-.035-.907a3.052,3.052,0,0,1-2.217-1.011c-.87-1.172.022-2.333.66-3.28-1.647-.19-.8-1.894-.15-2.268.329-.145.69-.445.69-.573-.1-.161-.241-.177-.437-.23l.489-.207a1.2,1.2,0,0,0-1.384-1.411c-1.019.339-1.249,1.118-2.006,1.8.181.4,1.406,2.21.922,2.225a3.192,3.192,0,0,0-2.133,2.478c-.116,1.309,1.773,2.217,2.837,1.948a.816.816,0,0,1,.453-.043,2.141,2.141,0,0,1-1.635.957,4.1,4.1,0,0,1-1.668-.584c-.265-.274-.756-.022-1.109.047a9.434,9.434,0,0,0,1.14,1.57,13.85,13.85,0,0,0,2.206.751c.629-.155,2.223.908,1.184,1.149a6.207,6.207,0,0,1-3.756-1.475,5.019,5.019,0,0,1-1.208-1.609.9.9,0,0,0-1.13-.287c-.256.23.106.613.225.87a5.62,5.62,0,0,0,1.188,1.759c1.206,1.452,1.676,1.767,3.885,2.594a7.057,7.057,0,0,0,2.33.226c2.623.108,3.409.29,4.127.959.343.395.418.513-.045.639a4.788,4.788,0,0,0,2.307,1.721,6.721,6.721,0,0,0,4.074.529,4.951,4.951,0,0,0,3.676-2.95c.163-.538.2-.586.437-.51.459.25-.208,1.341-.359,1.643a5.6,5.6,0,0,1-5.3,2.809,7.841,7.841,0,0,1-4.3-1.312,3.172,3.172,0,0,1-1.593-2.066c.025-.282.023-.308-.266-.4-1.381-.232-.871,1.124-1.6,1.774a2.744,2.744,0,0,1-2.171.51c-.119-1.337,1.166-.852,1.971-1.461.456-.263.513-.407.513-.82H62.27c-.072.289-.493.745-.507.307-.08-.421-.8-.408-1.138-.485a8.456,8.456,0,0,1-5.542-3.83c-.722-1.076-1.283-1.905-1.931-2.95-.427-.23-1.008-.275-1.325-.594a7.679,7.679,0,0,0-1.9-1.946c-2.229-.141-3.882.019-5.8-.888a3.075,3.075,0,0,1-1.213-.864,8.06,8.06,0,0,1-1.624-2.153c-.25-.438-.471-.81-.491-.827-1,.124-1.613,1.132-1.914,1.62-.262.275-.373.86-.821.916l-.13-.593a4.924,4.924,0,0,1,.846-1.589A5.489,5.489,0,0,1,40.136,41.5c.123-.068.145-.158.2-.275-.585.321-1.056.7-1.659.982-.155,0-.114-.424.072-.734.443-.734,1.169-.76,1.55-1.439.013-.223.152-.334.312-.5a.789.789,0,0,1,.609.509c2.192.023,4.309,1.09,3.193,2.888a6.9,6.9,0,0,1-.813-1.295.879.879,0,0,1-.35.765c-.55-.2-1.306-.489-1.7-.295A6.7,6.7,0,0,0,43.007,44.3a3.611,3.611,0,0,0,1.521.878c.973.357,2.579.913,3.605.609.267-.059.1-.1-.06-.212a3.51,3.51,0,0,0-1.681-.534c-1.607-.208-2.928-.821-3.111-1.443-.082-.278-.044-.286.4-.091a24.992,24.992,0,0,0,2.686.729,6.9,6.9,0,0,1,2.6,1.067,9.189,9.189,0,0,0,3.121,1.232,4.011,4.011,0,0,1,2.034,1.1c.6.545,1.027,1.3,1.956,1.3a.877.877,0,0,0,.079-.663c-.165-1.086.238-1.562.73-2.527a3.078,3.078,0,0,0-1.006-1.525,9.318,9.318,0,0,1-5.994-.646,6.948,6.948,0,0,1-3.973-5.146l-.226.049a4.958,4.958,0,0,0-.748.3l-.522.25-1.237-.013-1.237-.013-.928.331a5.247,5.247,0,0,0-3.136,2.489,4.913,4.913,0,0,0-.44,2.54l.42,1.2c.563.52.857,1.16,1.7,1.336.014,0,.051-.667.084-1.482a12.433,12.433,0,0,1,.151-1.748c.057-.313.184-.265.492-.265l.085,2.786.085,2.786.4.752.4.752a4.432,4.432,0,0,1,.136,1.775,17.68,17.68,0,0,0-.275,1.984A35.816,35.816,0,0,1,40.2,59.1a2.256,2.256,0,0,0,.975.552,3.161,3.161,0,0,0,1.012-.348c.679-.324,1.279-.29,1.879-.565v-.518c-.209-.234-.833-.711-.385-.714.686.179.829.518,1.131,1.013l-.112.712-.734.575H43.15l.114.726c-.463.166-.151.5-.032.838.575.373.834.251,1.361.018.46.075.9.46,1.191.108.555-.29.748.068,1.205.4l-.243.388H44.483c-.279.3-.143.5-.013.8a2.09,2.09,0,0,1,1.59.946,3.482,3.482,0,0,1,.218,1.022c.347,2.463,2.229,2.545,4.1,2.6A17.151,17.151,0,0,0,58.8,65.675c.382-.06,2.94-2.232,2.959-1.744,0,.481-3.87,2.888-5.538,3.446a3.714,3.714,0,0,0-.835.357c-.306,1.216-.269,2.365-.575,3.664a16.332,16.332,0,0,1-2.057,4.611,18.652,18.652,0,0,1-2.738,2.909,12.06,12.06,0,0,0-3.163,3.615c0,.417-.009,1.641-.477,1.692-.64-1.789.845-3.549,2.038-4.6a26.716,26.716,0,0,0,3.556-3.4c1.522-2.758,2.57-4.875,2.518-8.282-.053-.044-1.482.26-2.383.394-1.576.134-4.017.182-5.247-.573-1.97-1.008-1.1-2.066-1.361-3.441a2.118,2.118,0,0,0-.933-.532,1.138,1.138,0,0,1-1.013-.426c-.176-.838.339-.953-.794-1.343-.141,0-.51-.344-.6-.558a.774.774,0,0,1,.1-.486,2.276,2.276,0,0,0,.192-.526c.058-.234,0-.2-.252-.2a1.017,1.017,0,0,0-.655.354,2.4,2.4,0,0,1-1.81-.614l-.228-.264c-.039-1.081.395-2.025.414-3.1.08-.963.229-1.725.4-2.7l.023-1.5a3.169,3.169,0,0,0-.565-2.566,19.076,19.076,0,0,0-.168-2.34,1.139,1.139,0,0,1-.918.072,3.664,3.664,0,0,1-2.129-2.013,4.805,4.805,0,0,1-.164-2.31A5.762,5.762,0,0,1,38.452,39.9,11.9,11.9,0,0,1,40.8,38.264a27.633,27.633,0,0,1,2.726-4.293c.794-.947,1.517-1.861,2.358-2.829a18.385,18.385,0,0,0,2.623-4.424,22.342,22.342,0,0,1,2.652-4.547,18.883,18.883,0,0,1,1.954-1.9,4.627,4.627,0,0,1,1.76-1.113,6.009,6.009,0,0,1,2.741-.419c.235,0,.462,0,.676-.006a21.321,21.321,0,0,1,2.334.422A30.4,30.4,0,0,1,64.347,20.5a21.773,21.773,0,0,0,2.33,1.432,12.561,12.561,0,0,1,3.329,1.8,10.29,10.29,0,0,1,2.15,1.637,9.569,9.569,0,0,1,2.957,7.105,17.155,17.155,0,0,1,1.8,3.1c.63,4.581-3.281,7.44-4.593,10.984V49.9a5.076,5.076,0,0,1,1.95-.27A5.491,5.491,0,0,1,78.8,54.855c-.408,3.126-.135,4.887-3.084,6.27a10.958,10.958,0,0,1-6.917,1.22,17.293,17.293,0,0,0,1.542,3.92,12.1,12.1,0,0,0,2.679,3.167,4.824,4.824,0,0,1,1.6,2.473A11.369,11.369,0,0,1,73.5,78.237a26.2,26.2,0,0,1-2.578,4.4c-1.92,2.563-4.515,4.857-7.87,5.492-1.849.146-3.707.253-5.389.253C57.037,88.378,56.433,88.363,55.862,88.329Zm-5.328-2.6c-.24.4-.2.589.178.787a13.738,13.738,0,0,0,3.531.985c.841.1,1.67.3,2.5.354a52.768,52.768,0,0,0,5.687,0l0,0c1.69-.172,5.382-1.708,5.855-3.1-.033-.157-.078-.093-.285-.063a3.3,3.3,0,0,0-.679.185c.238-.407,1.266-1.473,1.528-1.187a.2.2,0,0,0,.211.04c1.082-1.264,1.785-2.75,2.749-4.03.363-.62.536-.833-.086-1.1.709-1.125,1.463-1.8,1.631-2.865a8.372,8.372,0,0,0,.107-1.108H72.9c-.646,0-.73-.044-.644-.337.146-.429.932-.385,1.31-.683a2.7,2.7,0,0,0-.157-1.723l-.569-.056a.762.762,0,0,1,.156-.493c.255-.218.027-.433-.086-.645-.564.007-1.135.053-1.608.089a12.816,12.816,0,0,0-2.949.538c-5.592,1.2-10.068,4.071-14.092,7.423a14.266,14.266,0,0,1-5.563,3.214c-.452.6-.491,1.432-1.023,1.967-.664,1.017.8,1.744,1.663,2.174.332-.041,1.044-.563,1.222-.563C50.613,85.535,50.615,85.588,50.534,85.726ZM63.955,40.9a2.287,2.287,0,0,1-.591,1.3,5.322,5.322,0,0,1-1.643,1.354c-1.722,1.607,1.243,1.311,2.261,1.579,1.365.6,1.142,1.035,1.419,1.871a9.129,9.129,0,0,0,1.651-.787h0a2.9,2.9,0,0,1,2.494-.2,5.958,5.958,0,0,0,2.32.267c.634-1.138,1.341-2.253,1.939-3.4-1.35.191-2.753.05-4.169.272a2.414,2.414,0,0,0-1.179.354c-.634.375-.971.214-.546-.262a16.054,16.054,0,0,0,1.274-1.607,3.993,3.993,0,0,0-.135-2.133c-1.383-.147-2.464-.575-3.3-.575S64.342,39.353,63.955,40.9Zm-6.624,2.489c-.583.507.15,1.244.465,1.879l.655-.56c-.275-.473-.534-.962-.836-1.419h0A2.811,2.811,0,0,0,57.331,43.387Zm-9.763-7.013a4.02,4.02,0,0,0-.245,3.06A4.685,4.685,0,0,0,48.935,41.6a7.21,7.21,0,0,0,2.4,1.378,8.155,8.155,0,0,0,3.756.478l0,0c3.05-.009,4.814-4.34,3.6-2.9a6.19,6.19,0,0,1-6.244,1.738,7.3,7.3,0,0,1-2.3-1.054A4.487,4.487,0,0,1,48,38.181a2.244,2.244,0,0,1,.056-1.15c1.03-1.677,1.2-3.736,3.468-3.625,1.431.187,3.018.664,2.8,1.938.462,1.019-2.08,2.217-2.229,1.346a.517.517,0,0,1,.379-.577c.879-1.13-1.017-1.377-1.9-.972a2.78,2.78,0,0,0-1.027,1.785A2.985,2.985,0,0,0,49.8,39.36a5.534,5.534,0,0,0,3.4,2.158c1.927.245,3.983-.426,4.675-2.03.24-.6.1-1.413-.458-2.707a11.641,11.641,0,0,0-2.234-3.464,4.593,4.593,0,0,1-.707-.948c.19-.371.433-.316.806-.154,1.146.5,1.92,1.618,2.959,4.278a8.2,8.2,0,0,0,1.545,2.947,2.863,2.863,0,0,0,2,1.066c.441.04,1.029.374,1.279.322a9.609,9.609,0,0,0-1.884-4.109,10.9,10.9,0,0,1-1.771-3.211c-.055-1.853-.118-3.794-.171-5.441l-.094-2.875a2.252,2.252,0,0,1-.247-1.458c.23,0,.383.216.517.72A18.1,18.1,0,0,1,59.6,28.6a44.056,44.056,0,0,0,.256,5.128,11.018,11.018,0,0,0,1.335,2.081,13.269,13.269,0,0,1,2.242,4.227A16.125,16.125,0,0,1,65.229,38.3a6.531,6.531,0,0,1,2.646.244c.187,0,.38,0,.575,0A9.81,9.81,0,0,1,70,38.618a4.208,4.208,0,0,1-.293.669,4.258,4.258,0,0,1-.218,2.755c1.878.054,2.921.255,4.511-.307,1.775-1.578,2.928-4.051,2.328-6.047a19.654,19.654,0,0,0-1.824-2.63,2.153,2.153,0,0,1-.414-1.674l.466-.057a4.928,4.928,0,0,0-.7-2.465,16.714,16.714,0,0,0-4.732-4.494c-1.5-1.2-3.54-1.641-4.778-2.608a5.29,5.29,0,0,0-2.269-1.231,13.547,13.547,0,0,0-5.939-.689c-3.719.7-5.451,5.254-6.284,6.68-.881,1.7-2.042,3.272-3.045,4.911-.524.809-1.236,1.375-1.764,2.207a21.409,21.409,0,0,0-3.2,4.309c0,.023.757.028,1.682.011l1.682-.031a3.572,3.572,0,0,0,1.288-.862q.4-.456.818-.906ZM85.254,87.79l-5.21-3.307a.121.121,0,0,1-.057-.081.11.11,0,0,1,.027-.092l.786-.9a.152.152,0,0,1,.114-.049.158.158,0,0,1,.085.024l5.2,3.305a.121.121,0,0,1,.056.081.111.111,0,0,1-.027.092l-.778.9a.152.152,0,0,1-.115.05A.158.158,0,0,1,85.254,87.79Zm-27.5-1.8h0c.99-.267.544.417.133.79a6.127,6.127,0,0,1-1.521.919A2.413,2.413,0,0,1,57.752,85.985Zm4.345.082c.438.876-.742,1.167-1.454,1.415A2.292,2.292,0,0,1,62.1,86.067Zm2.669.107c-.241.945-.935,1.151-1.837,1.3A1.667,1.667,0,0,1,64.766,86.174Zm-5.956.531c.228-.279.8-.96,1.191-.84a.581.581,0,0,1-.182.857c-.328.265-.749.394-1.085.636C58.575,87.2,58.683,86.9,58.81,86.705Zm-3.4-1.124h0a3.471,3.471,0,0,1,1.07-.227c-.061.947-1.407,1.554-2.093,1.9C54.641,86.719,54.867,85.934,55.41,85.581Zm-1.925.04a3.492,3.492,0,0,1,1.546-.874c.1,1.008-.975,1.363-1.79,1.8A4.114,4.114,0,0,1,53.486,85.621Zm11.585.522h0c.265-.614,1.157-1.367,1.76-1.11-.317.555-.433.987-1.107,1.135a1.071,1.071,0,0,1-.332.057A.587.587,0,0,1,65.071,86.143Zm-1.548-.809a4.635,4.635,0,0,1,1.072-.737c.5-.278.462.288.424.554-.587.354-1.174.71-1.791,1.023Zm-11.7.262h0c.13-.292,1.219-1.214,1.351-1.144.018.823-.687,1.288-1.41,1.721A.735.735,0,0,1,51.823,85.6Zm11.03-1.456h0a.867.867,0,0,1-.332.946,4.936,4.936,0,0,1-1.427.735A2.432,2.432,0,0,1,62.853,84.14Zm-2.589.134c.712-.177.7-.179.625.148-.561.93-1.145,1.007-2.017,1.3A2.088,2.088,0,0,1,60.264,84.274Zm-1.517-.389c.428-.122.462-.1.374.245-.319.616-1.167.946-1.71,1.369A1.955,1.955,0,0,1,58.747,83.886Zm-9.765-.512h0c.587-.1.443.486.245.76a6.568,6.568,0,0,1-1.16,1.113C48.219,84.69,48.4,83.64,48.982,83.373Zm.8.771c.273-.207,1.926-1.841,1.279-.519a3.021,3.021,0,0,1-1.56,1.513C49.4,85.046,49.555,84.487,49.785,84.144Zm-23.679.8-2.482-3.638a.108.108,0,0,1-.015-.094.126.126,0,0,1,.067-.075l5.607-2.785a.16.16,0,0,1,.071-.017.149.149,0,0,1,.123.061L31.9,81.946a.109.109,0,0,1,.015.094.127.127,0,0,1-.067.075l-.949.471a.156.156,0,0,1-.195-.044l-1.687-2.475-1,.5,1.566,2.291a.108.108,0,0,1,.015.093.126.126,0,0,1-.066.075l-.944.474a.156.156,0,0,1-.2-.044l-1.57-2.3-1.275.633,1.75,2.565a.108.108,0,0,1,.015.094.127.127,0,0,1-.067.075l-.947.469a.161.161,0,0,1-.071.016A.149.149,0,0,1,26.107,84.949Zm26.019-1.2c.524-.283.627-.281.627.009-.039.555-.928.914-1.449,1.177A1.51,1.51,0,0,1,52.126,83.744Zm34.282,1a4.345,4.345,0,0,1-1.967-.52,4.61,4.61,0,0,1-1.166-.807,2.48,2.48,0,0,1-.628-.977,2.254,2.254,0,0,1,.369-2.1A2.8,2.8,0,0,1,84.7,79.175a2.5,2.5,0,0,1,.6-.068,3.9,3.9,0,0,1,.843.1.141.141,0,0,1,.089.06.108.108,0,0,1,.011.1l-.4,1.087a.13.13,0,0,1-.071.072.164.164,0,0,1-.109.008,1.623,1.623,0,0,0-.429-.061,1.284,1.284,0,0,0-.4.064h0A1.18,1.18,0,0,0,84.19,81h0a.989.989,0,0,0-.141.981,2.27,2.27,0,0,0,1.147,1,3.361,3.361,0,0,0,1.445.437,1.344,1.344,0,0,0,.189-.013,1.311,1.311,0,0,0,.941-.557.884.884,0,0,0,.159-.718,1.529,1.529,0,0,0-.577-.783.112.112,0,0,1,0-.182l.992-.755a.16.16,0,0,1,.2.007,2.45,2.45,0,0,1,.9,1.471,2.2,2.2,0,0,1-.46,1.568,2.941,2.941,0,0,1-1.937,1.226,3.375,3.375,0,0,1-.635.06ZM58.351,82.6h0a1.069,1.069,0,0,1,.1.625,8.755,8.755,0,0,1-2.1,1.216C56.681,83.936,57.769,82.449,58.351,82.6Zm8.605.323h0a3.3,3.3,0,0,1,1.219-.391,1.857,1.857,0,0,1-1.011,1.413,4.306,4.306,0,0,1-1.266.31A2.24,2.24,0,0,1,66.956,82.918ZM55.31,83.3h0a3.755,3.755,0,0,1,1.186-.756.744.744,0,0,1-.149.885,3.542,3.542,0,0,1-1.445.807A1.667,1.667,0,0,1,55.31,83.3Zm9.681-.589a2.256,2.256,0,0,1,.669-.222,2.291,2.291,0,0,1-1.958,1.56A2.156,2.156,0,0,1,64.991,82.713Zm-1.448-.519h0c.043,0,.078.157.078.349,0,.72-1.21,1.037-1.863,1.348A3.03,3.03,0,0,1,63.543,82.194Zm-3.329,1a3.289,3.289,0,0,1,1.941-1.536c.286.977-1.452,1.612-2.152,1.959Zm-9.136-1.528h0c.376,0,.19.758-.283,1.155a2.02,2.02,0,0,1-1.236.525C49.837,82.813,50.419,81.749,51.079,81.662Zm2.673,1.621h0c-.138-.118-.063-.375.179-.62a3.812,3.812,0,0,1,1.483-.791A1.769,1.769,0,0,1,54,83.334.63.63,0,0,1,53.752,83.284Zm-1.867-.357c-.3-.256.314-1.055.919-1.2.569-.327.839.1.521.515a2.719,2.719,0,0,1-1.353.7A.134.134,0,0,1,51.884,82.926Zm16.84-.717h0a2.068,2.068,0,0,1,1.521-.99,1.474,1.474,0,0,1-.151.789c-.242.441-1.025.444-1.547.538C68.52,82.547,68.6,82.4,68.724,82.21Zm-8.051-1.17h0a3.241,3.241,0,0,1,.507-.263c.167.693-.884,1.68-1.7,1.68A2.649,2.649,0,0,1,60.673,81.04Zm5.6,1.358h0a.927.927,0,0,1-.067-.477c.52-.414,1.176-1.115,1.887-1.144.321-.033.183.405.183.613a3.792,3.792,0,0,1-1.8,1.061A.379.379,0,0,1,66.274,82.4Zm-8.762-.188a5.079,5.079,0,0,1,1.067-1.169,2.457,2.457,0,0,1,1.079-.4c.114.857-1.362,1.548-2.145,1.574ZM64.941,81.1h0a5.171,5.171,0,0,1,1.534-.761c.111,1.114-1.314,1.248-2.028,1.7A1.74,1.74,0,0,1,64.941,81.1Zm-6.76-1.115c.156.347.036.513-.28.767a5.5,5.5,0,0,1-1.714.832C56.3,80.672,57.271,80.312,58.181,79.981Zm6.691-.127h0c.654-.181,1-.983,1.407-1.359a1.777,1.777,0,0,1,1.38-.5c-.011,1.064-1.553,1.453-2.488,1.908l-.144.284a2.937,2.937,0,0,1-2.448,1.3A3.667,3.667,0,0,1,64.872,79.855ZM52.13,81.368a3.993,3.993,0,0,1,1.858-1.387c.186,0,.119.447-.108.719a2.861,2.861,0,0,1-1.576.774C52.2,81.474,52.13,81.442,52.13,81.368Zm4.278-1.652h0c.22.69-.628.992-1.255,1.269-.514.227-.961.412-.995.412C53.947,80.529,55.637,79.982,56.408,79.716Zm12.676.8a1.288,1.288,0,0,0,.126-.395h0c.372-.638,1.1-.7,1.76-.856.067.453-.1.564-.489.866a1.184,1.184,0,0,1-1.017.387C69.346,80.515,69.221,80.512,69.084,80.512Zm-5.47-1.592c.617,0-.355,1.031-.581,1.17a3.023,3.023,0,0,1-1.07.356A2.417,2.417,0,0,1,63.615,78.919Zm27.1,1.47L85.777,76.2a.111.111,0,0,1-.031-.137l.553-1.084a.145.145,0,0,1,.131-.074h0l6.989.183a.149.149,0,0,1,.117.057.108.108,0,0,1,.01.115l-.573,1.116a.146.146,0,0,1-.137.073l-1.476-.056L90.4,78.266l1.068.86a.111.111,0,0,1,.033.14l-.559,1.086a.141.141,0,0,1-.1.071l-.027,0A.155.155,0,0,1,90.712,80.389ZM89.341,77.4l.545-1.063-1.97-.092ZM62.087,78.548h0c.312.207.169.306-.007.589A3.016,3.016,0,0,1,60.4,80.243C60.354,79.409,61.352,78.916,62.087,78.548Zm6.1.283a1.667,1.667,0,0,0,.408-.009c.29-.029.551-.059.463.208a2.1,2.1,0,0,1-2.019,1.13C67.142,79.576,67.715,79.221,68.183,78.831Zm-10,1.15h0Zm2.492-2.09c.457.743-.862,1.351-1.506,1.746C59.16,79.052,60.116,77.785,60.673,77.891Zm-4.493.149h0c.479-.233.5-.231.5.05a2.892,2.892,0,0,1-1.749,1.538A3.441,3.441,0,0,1,56.18,78.041Zm2.2-.182h0a3.769,3.769,0,0,1,.679-.444c.4.82-.878,1.614-1.7,1.769C57.227,78.748,58.087,78.081,58.379,77.859ZM22.724,78.9A2.624,2.624,0,0,1,21.51,77.66a2.385,2.385,0,0,1-.276-1.044A2.171,2.171,0,0,1,21.48,75.6a2.643,2.643,0,0,1,.749-.882,4.529,4.529,0,0,1,1.213-.646,5.093,5.093,0,0,1,1.739-.342,3.417,3.417,0,0,1,1.007.147,2.969,2.969,0,0,1,1.053.56,2.877,2.877,0,0,1,.718.928,2.091,2.091,0,0,1,.126,1.845,2.418,2.418,0,0,1-.878.977.159.159,0,0,1-.108.027.149.149,0,0,1-.1-.048l-.8-.916a.111.111,0,0,1-.027-.092.122.122,0,0,1,.058-.081,1.077,1.077,0,0,0,.486-.576.906.906,0,0,0-.076-.708v0a1.24,1.24,0,0,0-.847-.673h0a1.52,1.52,0,0,0-.406-.051,3.609,3.609,0,0,0-1.212.261,2.621,2.621,0,0,0-1.369.88.956.956,0,0,0-.017.971,1.081,1.081,0,0,0,.591.528h0a1.562,1.562,0,0,0,.6.1,3.061,3.061,0,0,0,.483-.042.162.162,0,0,1,.112.022.12.12,0,0,1,.057.086l.133,1.132a.129.129,0,0,1-.123.134,5.053,5.053,0,0,1-.575.035A3.037,3.037,0,0,1,22.724,78.9Zm46.591.023c.267-.544.79-1.138,1.379-1.15h0c.7,0,.753.241.164.774a1.087,1.087,0,0,1-.957.389C69.718,78.933,69.523,78.919,69.315,78.919Zm-3.3-1.731c.609-.264.607-.264.607,0,0,.328-.83,1-1.53,1.232l-.443.149A3.36,3.36,0,0,1,66.013,77.188Zm40.8.694h0c.257-2.453-.086-4.993.345-7.428.154-.247.5-.181.964.186a7.989,7.989,0,0,0,3.159,1.12c1.19.4,2.351.831,2.259,1.917-.147,1.206-1.6,2.054-2.225,2.514a16.4,16.4,0,0,1-4.16,2.256Zm1.162-.771a8.746,8.746,0,0,0,4.1-2.368h0c.987-1.141.646-1.866-1.014-2.15-1.3-.152-2.145-.694-3.308-.906A40.913,40.913,0,0,0,107.979,77.11ZM6.429,78.129v.017a17.906,17.906,0,0,1-5.083-3.43,1.508,1.508,0,0,1-.1-2.068c1.287-1.368,3.727-.826,5.151-2.1.329-.315.7-.342.878-.064a5.974,5.974,0,0,1,.2,2.278c.064,1.713.082,3.426.092,5.139-.147.32-.3.43-.5.431A1.929,1.929,0,0,1,6.429,78.129Zm-4.2-5.19c-.893.628-.463,1.5,1.392,2.817.923.507,1.853,1.372,2.863,1.31.029-1.858.28-3.493.17-5.376h0C5.137,72.251,3.7,72.357,2.226,72.939Zm61,4.546h0a5.946,5.946,0,0,1,1.64-.866c.128.153.094.3.094.5A9.034,9.034,0,0,1,63,78.292,1.087,1.087,0,0,1,63.229,77.485Zm4.788.372h0a2.2,2.2,0,0,1,2.372-1.163c.054.677-.32.759-1.033.979a8.477,8.477,0,0,1-1.117.257A.276.276,0,0,1,68.017,77.857Zm-9.732-1.573h0a2.432,2.432,0,0,1,1.518-.638,4.864,4.864,0,0,1-2.21,1.88A3.5,3.5,0,0,1,58.285,76.284Zm4.077.215h0a1.771,1.771,0,0,1,1.049-.411c.2.892-.722.784-1.3,1.233A1.617,1.617,0,0,1,62.362,76.5Zm-2.5.451c.066-.565,1.375-1.241,1.381-.655-.19.636-.654.575-1.195.861-.044.061-.086.089-.12.089C59.854,77.245,59.818,77.131,59.857,76.951Zm11.7.232c-.156-.07-.283-.163-.283-.208a1.055,1.055,0,0,1,1.384-.639c-.1.388-.4.908-.836.908A.644.644,0,0,1,71.561,77.183Zm-4.429-1.725h0c.551-.3.586-.308.661-.063a.669.669,0,0,1-.336.67,8.643,8.643,0,0,1-1.664.654A3.309,3.309,0,0,1,67.132,75.458Zm.883.994a2.247,2.247,0,0,1,1.55-.97.751.751,0,0,1-.405.831,3.56,3.56,0,0,1-1.288.37ZM65.7,74.915h0l.417.159a3.343,3.343,0,0,1-2.187,1.187C64.1,75.484,64.948,75.174,65.7,74.915Zm5.148,1.262.613-.929.753-.055a1.607,1.607,0,0,1-.434.984Zm-8.58-.693h0a3.787,3.787,0,0,1,2.08-1.177c-.025.812-1.155,1.222-1.657,1.375a2.554,2.554,0,0,1-.5.123C62.077,75.8,62.129,75.71,62.264,75.484ZM61.1,74.952c.367-.754,1.79-1.547,1.79-1a3.356,3.356,0,0,1-1.948,1.321Zm8.536.252a2.049,2.049,0,0,1,1.742-1.077,1.223,1.223,0,0,1-.54.939,2.412,2.412,0,0,1-.935.139Zm-2.193-.354c-.006-.394.415-.745.643-.981h0l1.375.052c.13.837-.56.94-1.3.94C67.919,74.86,67.672,74.849,67.446,74.849Zm-1.871-.965h0c.41-.107,1.765-.723,2.023-.368a3.069,3.069,0,0,1-2.429,1.176A1.561,1.561,0,0,1,65.575,73.884Zm5.806.242h0ZM69.931,73.9a1.366,1.366,0,0,1,1.2-.815A.955.955,0,0,0,72,72.518c0-.282,1.084-.37,1.206-.1-.048.72-.712.749-1.31.748-.064.355-.4.561-.683.8-.108,0-.217,0-.326,0A5.488,5.488,0,0,1,69.931,73.9Zm0,0h0Zm-6-.069h0c.136-.275.267-.474.438-.754a6.671,6.671,0,0,1,1.814-.525c.231,0,.137.356-.155.591a4.211,4.211,0,0,1-2.046.689Zm4.018-.218a2.649,2.649,0,0,1,1.085-.973,6.165,6.165,0,0,1,1,.042c-.149.325-.163.71-.59.849a5.452,5.452,0,0,1-1.076.083Zm-.24-1.6a4.863,4.863,0,0,1,1.708-.113c-.395.705-1.545.934-2.248,1.025C67,72.57,67.51,72.2,67.707,72.007Zm2.326.1.525-.885c.153,0,.31,0,.468,0a9.507,9.507,0,0,1,1.185.042c-.14.307-.277.53-.455.843Zm-2.325-.1h0ZM21.213,71.5h0a5.564,5.564,0,0,1-1.218-2,8.572,8.572,0,0,1-.353-3.618c-.275.044-.552.112-.811.174-.923.123-1.276-.43-1.095-1.067a6.841,6.841,0,0,1,1.631-.451,17.023,17.023,0,0,1-1.032-2.425c-.084-.52-.169-3.713.652-2.978a6.24,6.24,0,0,1,1.341,2.537,13.268,13.268,0,0,1-.135,2.791,15.27,15.27,0,0,0,1.654-.272c1.651.686-.367,1.464-1.324,1.6a8.992,8.992,0,0,1,1.344,3.784,7.08,7.08,0,0,1-.59,2.066Zm70.825-2.871h0a26.4,26.4,0,0,1,1.119-2.845l-.482-.059c-2.221-1-1.033-1.561.708-1.307a16.351,16.351,0,0,1,.144-2.63,5.779,5.779,0,0,1,1.486-2.941,4.492,4.492,0,0,1,.332,3.523c-.334.721-.768,1.675-.935,2.164a13.807,13.807,0,0,0,1.508.29.691.691,0,0,1-.28,1.306,10.506,10.506,0,0,1-1.583-.257v3.31a8.409,8.409,0,0,1-1.665,2.452A9.7,9.7,0,0,1,92.038,68.625Zm-19.35-10.8h0c1.931-.6,2.863-1.471,3.258-2.7.195-.632.325-.794.438-.543.154,1.7-2.152,4.043-3.554,4.106A.86.86,0,0,1,72.689,57.82Zm1.262-2.257h0a2.24,2.24,0,0,0,.77-1.544c.157-.4-.376-1.557.075-1.514.614.219.587,1.106.557,1.54-.049,1.688-1.975,2.6-3.458,2.932C71.407,56.344,73.506,55.891,73.951,55.563Zm17.607.884a.12.12,0,0,1-.07-.109l.042-1.333a.121.121,0,0,1,.067-.1l1.437-.779a8.385,8.385,0,0,0,.952-.556.758.758,0,0,0,.238-.283,1.5,1.5,0,0,0,.082-.517l0-.1-2.563-.057a.133.133,0,0,1-.139-.126l.032-1.117a.116.116,0,0,1,.044-.086.156.156,0,0,1,.1-.034h0l6.483.139a.155.155,0,0,1,.1.038.114.114,0,0,1,.039.088l-.069,2.352a3.539,3.539,0,0,1-.223,1.33,1.463,1.463,0,0,1-.7.684,2.231,2.231,0,0,1-1.065.242h-.045a2.058,2.058,0,0,1-1.286-.427,1.68,1.68,0,0,1-.549-.881,2.748,2.748,0,0,1-.387.361,7.494,7.494,0,0,1-1.091.629l-1.291.646a.163.163,0,0,1-.145,0Zm4.049-3.05a3.523,3.523,0,0,0,.043.967.473.473,0,0,0,.215.25l.007,0a.755.755,0,0,0,.4.1.727.727,0,0,0,.438-.11.544.544,0,0,0,.214-.343c.02-.1.033-.447.046-.8l.025-.75-1.365-.028ZM15.564,55.874l-.033-1.117a.114.114,0,0,1,.039-.088.154.154,0,0,1,.1-.038l3.515-.068a8.054,8.054,0,0,0,1.056-.062.869.869,0,0,0,.735-.972h0a.9.9,0,0,0-.21-.635h0a.78.78,0,0,0-.478-.238h0a6.047,6.047,0,0,0-.735-.031l-.342,0-3.593.071a.157.157,0,0,1-.1-.034.116.116,0,0,1-.044-.087l-.024-1.115a.133.133,0,0,1,.14-.125l3.4-.07c.164,0,.318,0,.46,0a8.007,8.007,0,0,1,1.223.066,2.08,2.08,0,0,1,.889.344,1.775,1.775,0,0,1,.584.684,2.579,2.579,0,0,1,.242,1.109,2.653,2.653,0,0,1-.2,1.258,1.852,1.852,0,0,1-.572.7h0a2.127,2.127,0,0,1-.766.351,9.2,9.2,0,0,1-1.675.147l-3.462.069h0A.135.135,0,0,1,15.564,55.874Zm29.66-1.739h0c-.208-.068-.314-.659-.174-.975.182-.28.032-.389-.144-.647l-.261-.381c-.6-.04-.723-.57-.87-.973-1-.038-1.567-.744-1.016-1.409,1.2-.939,3.043-.777,4.412-.656.989.066,1.958.235,2.93.385,0,.106-.067.179-.135.282l-2.692-.012-2.692-.012c-1.09.344.119.709.633.715A8.207,8.207,0,0,1,49,51.734c-.011.637-1,.928-1.356,1.051a17.505,17.505,0,0,0-1.9.77l1.294-.1c-.009.273-.371.321-.626.4l.12.977a1.866,1.866,0,0,1-.793.737A4.088,4.088,0,0,0,45.224,54.135Zm.15-1.855c.172.214.683.628.494.235a.641.641,0,0,0-.431-.285C45.4,52.23,45.374,52.245,45.374,52.28Zm.828-.146c-.036.4.291.583.66.479h0c.354-.105.556-.295.353-.405a2.628,2.628,0,0,0-.705-.075Zm-1.441-.987-.009.165a11.146,11.146,0,0,0,2.278.134h0a4.465,4.465,0,0,0-1.841-.456C44.945,50.989,44.775,51.034,44.762,51.146Zm47.649-1.284a2.568,2.568,0,0,1-1.094-1.975,2.463,2.463,0,0,1,.755-2.1,3.787,3.787,0,0,1,2.458-.912c.147-.008.289-.012.424-.012a4.558,4.558,0,0,1,1.321.17h0a3.386,3.386,0,0,1,.967.486,2.309,2.309,0,0,1,.676.716,2.821,2.821,0,0,1,.369,1.218,2.75,2.75,0,0,1-.137,1.16,2.413,2.413,0,0,1-.624.937,3.024,3.024,0,0,1-1.065.647,5.077,5.077,0,0,1-1.438.276c-.133.008-.264.012-.391.012A3.739,3.739,0,0,1,92.411,49.862Zm2.28-3.6a2.536,2.536,0,0,0-1.535.495,1.182,1.182,0,0,0-.439,1.037h0a1.23,1.23,0,0,0,.6.975,2.436,2.436,0,0,0,1.327.31c.1,0,.2,0,.3-.009a2.592,2.592,0,0,0,1.538-.478,1.2,1.2,0,0,0,.415-1.046,1.236,1.236,0,0,0-.593-.983l0,0a2.329,2.329,0,0,0-1.3-.309C94.9,46.253,94.795,46.256,94.691,46.262ZM22.087,50.3l-6.473-.38a.131.131,0,0,1-.133-.131l.083-1.082a.124.124,0,0,1,.077-.1L19.694,46.8,15.88,46.58a.152.152,0,0,1-.1-.042.112.112,0,0,1-.035-.09l.085-1.036a.138.138,0,0,1,.152-.114l6.47.377a.131.131,0,0,1,.133.131l-.086,1.12a.124.124,0,0,1-.077.1L18.471,48.8l3.718.218a.153.153,0,0,1,.1.042.113.113,0,0,1,.035.089l-.083,1.037a.136.136,0,0,1-.142.115ZM54.043,45.93h0c-1.111-.392-2.57-.487-3.476-1.151-.2-.156-.321-.319-.288-.393a15.974,15.974,0,0,1,4.259,1.252c.337.082,1.587,1.286.975,1.432A6.372,6.372,0,0,1,54.043,45.93ZM22.622,44.8l-6.43-.737a.15.15,0,0,1-.095-.047.11.11,0,0,1-.028-.091l.174-1.112a.138.138,0,0,1,.142-.107H16.4l6.43.743a.149.149,0,0,1,.095.047.111.111,0,0,1,.028.091l-.174,1.106a.138.138,0,0,1-.142.107Zm70.332-.589a3.241,3.241,0,0,1-1.3-.441,2.185,2.185,0,0,1-.713-.742v0a3.067,3.067,0,0,1-.341-.99l-.415-2.071a.11.11,0,0,1,.024-.092.146.146,0,0,1,.093-.05l6.395-.94.024,0a.139.139,0,0,1,.141.1l.4,2.016a3.647,3.647,0,0,1,.089,1.091v0a1.861,1.861,0,0,1-.451.964,2.978,2.978,0,0,1-.981.707,5.59,5.59,0,0,1-1.517.415h0a6.264,6.264,0,0,1-.876.067A4.222,4.222,0,0,1,92.954,44.211Zm-1.168-3.223.139.7a2.608,2.608,0,0,0,.182.627,1.035,1.035,0,0,0,.317.36,1.343,1.343,0,0,0,.6.17h0a2.718,2.718,0,0,0,.289.014,6.194,6.194,0,0,0,.866-.073,4.133,4.133,0,0,0,1.068-.265h0a1.273,1.273,0,0,0,.505-.361.855.855,0,0,0,.174-.493v0a4.8,4.8,0,0,0-.121-.885l-.075-.372Zm-75.413,1.08a.112.112,0,0,1-.036-.109l.281-1.188a.137.137,0,0,1,.122-.1l4.6-.518L17.327,38.2a.118.118,0,0,1-.07-.131l.273-1.162a.128.128,0,0,1,.082-.088.163.163,0,0,1,.131.007l5.9,3.041a.117.117,0,0,1,.067.13l-.276,1.166a.136.136,0,0,1-.12.1l-6.819.846h-.02A.154.154,0,0,1,16.374,42.068Zm73.795-2.535a.133.133,0,0,1-.092-.083l-.38-1.17a.115.115,0,0,1,.053-.132l1.191-.751L90.3,35.427l-1.459-.1a.14.14,0,0,1-.126-.089L88.342,34.1a.11.11,0,0,1,.028-.112.153.153,0,0,1,.109-.044h.014l6.923.6a.139.139,0,0,1,.123.089l.374,1.138a.114.114,0,0,1-.051.132L90.3,39.514a.159.159,0,0,1-.086.025A.165.165,0,0,1,90.169,39.532Zm1.963-2.887,1.593-.983-1.959-.132Zm-67.968.988-6.206-1.6a.14.14,0,0,1-.085-.06.108.108,0,0,1-.011-.094l1.391-3.928a.142.142,0,0,1,.137-.087.164.164,0,0,1,.041.005l1.049.27a.14.14,0,0,1,.085.06.108.108,0,0,1,.011.094l-.969,2.742,1.107.285.893-2.545a.148.148,0,0,1,.178-.082l1.051.272a.14.14,0,0,1,.085.06.108.108,0,0,1,.011.094l-.9,2.542,1.414.362,1.006-2.84a.148.148,0,0,1,.178-.082l1.048.268a.14.14,0,0,1,.085.06.108.108,0,0,1,.011.094l-1.431,4.028a.142.142,0,0,1-.137.087A.165.165,0,0,1,24.163,37.634Zm63.7-4.723a.144.144,0,0,1-.134-.079l-.5-1.116a.112.112,0,0,1,.041-.138l5.247-3.812a.161.161,0,0,1,.128-.025.138.138,0,0,1,.1.075l.5,1.132a.113.113,0,0,1-.043.139l-3.579,2.529,4.631-.17a.145.145,0,0,1,.14.079l.492,1.109a.109.109,0,0,1-.015.113.15.15,0,0,1-.116.054l-6.892.109Zm-61.941-.146-5.976-2.149a.135.135,0,0,1-.077-.067.107.107,0,0,1,0-.095L20.94,28.29a4.05,4.05,0,0,1,.772-1.166,1.748,1.748,0,0,1,.946-.428h0a2.289,2.289,0,0,1,.318-.022,2.415,2.415,0,0,1,.816.146,1.776,1.776,0,0,1,1.017.8,1.472,1.472,0,0,1,.138.99,3.128,3.128,0,0,1,.514-.216,8.279,8.279,0,0,1,1.291-.245l1.472-.2a.156.156,0,0,1,.135.046.109.109,0,0,1,.019.124l-.605,1.23a.141.141,0,0,1-.1.073L26,29.7h0a8.471,8.471,0,0,0-1.119.22h0a.911.911,0,0,0-.35.188l0,0a1.476,1.476,0,0,0-.287.453v0l-.048.1,2.363.85a.135.135,0,0,1,.078.067.108.108,0,0,1,0,.095L26.111,32.7a.145.145,0,0,1-.131.075A.163.163,0,0,1,25.924,32.764ZM22.78,28.1a.671.671,0,0,0-.347.249c-.029.044-.121.2-.385.728l-.337.691,1.252.449.32-.647a3.521,3.521,0,0,0,.372-.911h0a.435.435,0,0,0-.087-.308.675.675,0,0,0-.332-.215h0a.886.886,0,0,0-.3-.057A.6.6,0,0,0,22.78,28.1Zm63.795,2.135-1.99-3.5a.108.108,0,0,1-.007-.094.131.131,0,0,1,.073-.071l5.791-2.4a.154.154,0,0,1,.191.057l.568,1.006a.107.107,0,0,1,.007.094.131.131,0,0,1-.073.07l-4.673,1.937,1.358,2.389a.107.107,0,0,1,.007.095.131.131,0,0,1-.073.071l-.989.406a.163.163,0,0,1-.061.012A.147.147,0,0,1,86.575,30.237ZM26.507,27.068A.135.135,0,0,1,26.429,27a.107.107,0,0,1,0-.1l.518-1a.152.152,0,0,1,.178-.066,2.058,2.058,0,0,0,.594.1,1.244,1.244,0,0,0,.36-.05,1.2,1.2,0,0,0,.65-.526h0a.969.969,0,0,0,.22-.731v0a.553.553,0,0,0-.317-.416.537.537,0,0,0-.229-.057.413.413,0,0,0-.074.007h0a.994.994,0,0,0-.409.2h0c-.116.085-.349.286-.756.652a3.7,3.7,0,0,1-1.342.861,2.3,2.3,0,0,1-.643.1,2.055,2.055,0,0,1-.9-.208,1.7,1.7,0,0,1-.727-.644,1.4,1.4,0,0,1-.192-.951,2.571,2.571,0,0,1,.45-1.093,2.765,2.765,0,0,1,1.444-1.2,2.265,2.265,0,0,1,.664-.1,2.52,2.52,0,0,1,1.013.224.13.13,0,0,1,.071.072.108.108,0,0,1-.009.094l-.592,1a.153.153,0,0,1-.176.06,1.531,1.531,0,0,0-.444-.076.775.775,0,0,0-.257.04,1.139,1.139,0,0,0-.532.474,1.041,1.041,0,0,0-.215.683.3.3,0,0,0,.176.233.4.4,0,0,0,.169.038.487.487,0,0,0,.147-.025,3.343,3.343,0,0,0,.921-.682,6.139,6.139,0,0,1,1.129-.875h0a2.282,2.282,0,0,1,.993-.276h0a2.383,2.383,0,0,1,1.1.258,1.888,1.888,0,0,1,.815.717,1.463,1.463,0,0,1,.216,1.027,2.9,2.9,0,0,1-.5,1.2,3.5,3.5,0,0,1-.686.774,2.438,2.438,0,0,1-.818.445,2.56,2.56,0,0,1-.754.111A3.462,3.462,0,0,1,26.507,27.068Zm57.948-.783a.149.149,0,0,1-.116-.056l-.767-1.023a.109.109,0,0,1,.005-.14l.877-1.016-1.287-1.72-1.431.275a.154.154,0,0,1-.152-.054l-.744-1a.109.109,0,0,1-.011-.115.14.14,0,0,1,.1-.072L87.758,20.2l.028,0a.15.15,0,0,1,.12.056l.746.992a.109.109,0,0,1,0,.139l-4.073,4.848a.151.151,0,0,1-.116.051Zm.147-4.226.731.98L86.519,21.7ZM31.516,23.327,26.161,20.2a.123.123,0,0,1-.06-.079.11.11,0,0,1,.022-.092l.735-.924a.158.158,0,0,1,.2-.032L32.411,22.2a.124.124,0,0,1,.06.079.11.11,0,0,1-.022.092l-.735.924a.151.151,0,0,1-.118.053A.159.159,0,0,1,31.516,23.327Zm1.359-1.788-4.957-3.566a.119.119,0,0,1-.051-.084.112.112,0,0,1,.033-.09l1.543-1.567h0a4.608,4.608,0,0,1,.921-.757,2.551,2.551,0,0,1,1.157-.329c.054,0,.109,0,.164,0h0a3.431,3.431,0,0,1,1.1.187,5.221,5.221,0,0,1,1.354.721l0,0a4.3,4.3,0,0,1,.952.92,2.334,2.334,0,0,1,.45,1.137h0a1.857,1.857,0,0,1-.207.941v0a3.562,3.562,0,0,1-.668.865l-1.59,1.608a.153.153,0,0,1-.109.043A.157.157,0,0,1,32.875,21.538Zm-1.42-5.069h0a1.219,1.219,0,0,0-.556.2h0a5.358,5.358,0,0,0-.712.647l-.293.293,3.065,2.206.544-.549a3,3,0,0,0,.442-.524v0a.834.834,0,0,0,.124-.436.966.966,0,0,0-.241-.5l0,0a3.525,3.525,0,0,0-.789-.711h0a3.774,3.774,0,0,0-.93-.53,1.694,1.694,0,0,0-.536-.1A1.1,1.1,0,0,0,31.455,16.469Zm48.537,4.085h0a3.7,3.7,0,0,1-1.136-.816,3.345,3.345,0,0,1-.62-.817,1.752,1.752,0,0,1-.208-.807h0a1.7,1.7,0,0,1,.205-.777,2.8,2.8,0,0,1,.587-.735.154.154,0,0,1,.1-.039.157.157,0,0,1,.1.034l.92.763a.111.111,0,0,1,.01.167,1.118,1.118,0,0,0-.38.743v0a.957.957,0,0,0,.351.7l0,0a1.34,1.34,0,0,0,.736.431,1.122,1.122,0,0,0,.16.012.681.681,0,0,0,.409-.122.413.413,0,0,0,.163-.231.7.7,0,0,0-.088-.395v0c-.052-.121-.206-.4-.455-.827a2.8,2.8,0,0,1-.483-1.37,1.473,1.473,0,0,1,.659-1.2,1.961,1.961,0,0,1,.961-.36h0a2.073,2.073,0,0,1,.22-.012,2.167,2.167,0,0,1,.88.19,3.342,3.342,0,0,1,1.047.733,3.379,3.379,0,0,1,.615.8,1.629,1.629,0,0,1,.2.776,1.65,1.65,0,0,1-.711,1.3.16.16,0,0,1-.2-.007l-.9-.82a.111.111,0,0,1-.005-.163.815.815,0,0,0,.286-.548.988.988,0,0,0-.336-.581,1.367,1.367,0,0,0-.685-.413h0a.462.462,0,0,0-.1-.011.354.354,0,0,0-.216.072.286.286,0,0,0-.124.248,2.418,2.418,0,0,0,.434.967,5.035,5.035,0,0,1,.573,1.208,1.463,1.463,0,0,1-.041.893v0a1.821,1.821,0,0,1-.658.794,2.237,2.237,0,0,1-1.072.4,2.319,2.319,0,0,1-.271.016A2.38,2.38,0,0,1,79.992,20.554ZM36.608,17.806a.137.137,0,0,1-.1-.078l-2.282-5.612a.113.113,0,0,1,.043-.135l1.053-.767a.158.158,0,0,1,.092-.029.163.163,0,0,1,.066.014l6.182,2.78a.124.124,0,0,1,.076.1.115.115,0,0,1-.05.108l-1.081.786a.161.161,0,0,1-.16.014l-1.3-.6L37.324,15.7l.511,1.175a.112.112,0,0,1-.042.137l-1.056.768a.157.157,0,0,1-.092.029A.165.165,0,0,1,36.608,17.806Zm.2-3.28,1.04-.753-1.723-.821ZM74.6,15.852l-3.7-2.294a.121.121,0,0,1-.058-.081.11.11,0,0,1,.026-.092l3.79-4.436a.159.159,0,0,1,.2-.027l1.059.658a.122.122,0,0,1,.057.081.11.11,0,0,1-.026.092l-3.058,3.583L75.411,14.9a.123.123,0,0,1,.058.081.111.111,0,0,1-.026.092l-.644.753a.152.152,0,0,1-.115.05A.159.159,0,0,1,74.6,15.852Zm-32.695-1.92L38.745,9.1a.108.108,0,0,1-.013-.094.129.129,0,0,1,.068-.074l2.094-1A5.281,5.281,0,0,1,42.067,7.5a2.776,2.776,0,0,1,.526-.051,2.663,2.663,0,0,1,.693.092,3.067,3.067,0,0,1,1.1.553,4.226,4.226,0,0,1,.966,1.085,3.431,3.431,0,0,1,.514,1.15,2.247,2.247,0,0,1-.047,1.2h0a2.093,2.093,0,0,1-.591.818,4.038,4.038,0,0,1-.976.606L42.1,13.979a.161.161,0,0,1-.069.015A.148.148,0,0,1,41.905,13.932Zm.165-5.147a6.94,6.94,0,0,0-.937.392l-.385.184L42.7,12.345l.73-.347a3.321,3.321,0,0,0,.632-.355l0,0a.9.9,0,0,0,.292-.369.921.921,0,0,0-.008-.544,3.351,3.351,0,0,0-.446-.905,3.409,3.409,0,0,0-.656-.777,1.449,1.449,0,0,0-.567-.282,1.1,1.1,0,0,0-.246-.027A1.455,1.455,0,0,0,42.071,8.785Zm28.059,4.323L65.675,11.3a.131.131,0,0,1-.074-.07.107.107,0,0,1,.006-.094l2.79-5a.154.154,0,0,1,.19-.058l4.344,1.764a.132.132,0,0,1,.074.07A.107.107,0,0,1,73,8.006l-.469.849a.154.154,0,0,1-.19.058L69.3,7.681l-.5.885L71.618,9.7a.131.131,0,0,1,.074.07.106.106,0,0,1-.006.094l-.469.842a.154.154,0,0,1-.19.058L68.216,9.625l-.632,1.14,3.14,1.277a.132.132,0,0,1,.074.07.107.107,0,0,1-.006.095l-.471.842a.147.147,0,0,1-.129.07A.16.16,0,0,1,70.129,13.107ZM50.513,10.486,49.542,5.01a.11.11,0,0,1,.026-.092.148.148,0,0,1,.094-.049l2.357-.305a7.642,7.642,0,0,1,.95-.072,3.052,3.052,0,0,1,.329.016h0a2.6,2.6,0,0,1,1.133.405h0a2.668,2.668,0,0,1,.8.845,3.689,3.689,0,0,1,.457,1.3h0A3.269,3.269,0,0,1,55.7,8.3,2.413,2.413,0,0,1,55.163,9.4a2.471,2.471,0,0,1-.886.59,4.579,4.579,0,0,1-1.167.278l-2.435.316h-.021A.138.138,0,0,1,50.513,10.486ZM51.741,5.8l-.441.058.6,3.38.827-.108a3.849,3.849,0,0,0,.738-.145,1.064,1.064,0,0,0,.428-.259.959.959,0,0,0,.212-.514,3.048,3.048,0,0,0-.043-.982,2.942,2.942,0,0,0-.293-.922,1.194,1.194,0,0,0-.416-.436,1.249,1.249,0,0,0-.576-.156h0l-.085,0A8.3,8.3,0,0,0,51.741,5.8Zm10.035,4.513-4.911-.4a.152.152,0,0,1-.1-.044.112.112,0,0,1-.032-.09l.608-5.508a.139.139,0,0,1,.156-.111l4.791.386a.152.152,0,0,1,.1.044.112.112,0,0,1,.032.09l-.1.933a.139.139,0,0,1-.156.111l-3.342-.273-.112.978,3.107.249a.15.15,0,0,1,.1.044.111.111,0,0,1,.032.09l-.1.931a.139.139,0,0,1-.156.111l-3.107-.252L58.441,8.86l3.466.28a.151.151,0,0,1,.1.044.112.112,0,0,1,.032.09l-.1.927a.137.137,0,0,1-.142.111Z" fill="#fff"/>
</svg>
