<svg xmlns="http://www.w3.org/2000/svg" width="60.851" height="57.769" viewBox="0 0 60.851 57.769">
  <path id="redux" d="M42.164,40.346a4.35,4.35,0,0,0-.465-8.673h-.155a4.332,4.332,0,0,0-4.182,4.491A4.447,4.447,0,0,0,38.6,39.029c-2.633,5.189-6.659,8.983-12.7,12.158a20.941,20.941,0,0,1-12.622,2.4,10.764,10.764,0,0,1-7.9-4.569,11.375,11.375,0,0,1-.619-12,18.228,18.228,0,0,1,5.266-6.2c-.31-1.007-.774-2.71-1.007-3.949C-2.207,35-1.046,46,2.362,51.187c2.555,3.872,7.744,6.273,13.474,6.273a19.047,19.047,0,0,0,4.646-.542A29.717,29.717,0,0,0,42.164,40.346Zm13.629-9.6c-5.885-6.892-14.558-10.687-24.47-10.687H30.084a4.255,4.255,0,0,0-3.794-2.323h-.155a4.338,4.338,0,0,0,.155,8.673h.155a4.362,4.362,0,0,0,3.794-2.633h1.394a29.514,29.514,0,0,1,16.494,5.034,20.744,20.744,0,0,1,8.208,9.912,10.734,10.734,0,0,1-.155,9.138,11.368,11.368,0,0,1-10.609,6.35,19.805,19.805,0,0,1-7.589-1.626c-.852.774-2.4,2.013-3.485,2.788a23.907,23.907,0,0,0,9.989,2.4c7.434,0,12.932-4.1,15.023-8.209,2.246-4.492,2.091-12.235-3.717-18.818ZM16.455,41.662a4.35,4.35,0,0,0,4.336,4.182h.155a4.338,4.338,0,0,0-.155-8.673h-.155a1.319,1.319,0,0,0-.542.077,28.373,28.373,0,0,1-4.027-17.191,20.773,20.773,0,0,1,4.569-12c2.246-2.865,6.582-4.259,9.525-4.336,8.208-.155,11.692,10.067,11.925,14.171,1.007.232,2.71.774,3.872,1.162C45.029,6.5,37.285,0,29.851,0,22.882,0,16.455,5.034,13.9,12.468,10.337,22.38,12.66,31.9,17,39.416a3.48,3.48,0,0,0-.542,2.246Z" fill="#fff"/>
</svg>
