<svg xmlns="http://www.w3.org/2000/svg" width="51.221" height="56.571" viewBox="0 0 51.221 56.571">
  <g id="icon-react" transform="translate(0 0)">
    <path id="Trazado_11" data-name="Trazado 11" d="M71.558,29.884q-.763-.989-1.651-1.976.6-.691,1.155-1.413c3.758-4.873,4.826-9.294,3-12.448s-6.182-4.44-12.282-3.622q-.988.134-1.966.326-.332-.973-.722-1.925C56.755,3.134,53.461,0,49.819,0s-6.937,3.134-9.278,8.826q-.39.951-.722,1.925-.978-.192-1.966-.326c-6.1-.818-10.462.468-12.282,3.622s-.754,7.575,3,12.448q.558.722,1.156,1.413-.885.986-1.651,1.976c-3.758,4.873-4.826,9.294-3,12.448,1.463,2.534,4.566,3.862,8.893,3.862a25.572,25.572,0,0,0,3.39-.24q1.158-.155,2.37-.406c.254.761.525,1.495.814,2.2,2.341,5.691,5.636,8.826,9.278,8.826s6.937-3.134,9.278-8.826c.289-.7.56-1.437.814-2.2q1.209.249,2.37.406a25.569,25.569,0,0,0,3.39.24c4.327,0,7.43-1.328,8.893-3.862,1.821-3.154.754-7.574-3-12.448ZM65.193,13.494c3.03,0,5.171.769,6,2.21,1.089,1.886.083,5.081-2.759,8.766q-.415.536-.853,1.054a54.356,54.356,0,0,0-5.567-4.6,53.143,53.143,0,0,0-1.256-6.981,24.693,24.693,0,0,1,4.432-.447ZM54.219,36.24c-1.49.86-2.96,1.632-4.4,2.318q-2.245-1.072-4.4-2.318c-1.645-.95-3.219-1.955-4.7-3q-.193-2.473-.192-4.956c0-1.922.084-3.768.239-5.525q2.029-1.392,4.161-2.622c1.662-.959,3.3-1.807,4.9-2.551,1.6.743,3.234,1.591,4.9,2.551q2.131,1.229,4.161,2.622c.155,1.757.239,3.6.239,5.525,0,1.716-.067,3.37-.192,4.956-1.485,1.044-3.059,2.049-4.7,3Zm4.2,1.327c-.222,1.411-.491,2.747-.8,4-1.229-.357-2.51-.789-3.831-1.3q1.056-.56,2.092-1.158,1.287-.744,2.54-1.543Zm-12.564,2.7c-1.321.509-2.6.941-3.831,1.3-.309-1.252-.579-2.589-.8-4q1.253.8,2.54,1.543,1.035.6,2.092,1.158Zm-8.6-9.669c-1.05-.87-2.033-1.755-2.941-2.65q1.379-1.315,2.965-2.595-.064,1.464-.064,2.93Q37.209,29.45,37.249,30.6Zm4.064-12.158q.334-1.981.788-3.748c1.178.329,2.405.729,3.671,1.2q-1.267.661-2.505,1.376-.987.57-1.954,1.173Zm12.554-2.549c1.266-.471,2.494-.87,3.671-1.2q.45,1.764.788,3.749-.967-.6-1.954-1.173-1.238-.715-2.505-1.376Zm8.5,9.463q1.581,1.276,2.965,2.595c-.907.894-1.891,1.78-2.941,2.65q.04-1.157.04-2.314Q62.429,26.807,62.365,25.355ZM49.819,3.315c2.4,0,4.944,3.05,6.765,8.209a53.082,53.082,0,0,0-6.765,2.433,53.1,53.1,0,0,0-6.765-2.433C44.875,6.365,47.421,3.315,49.819,3.315ZM28.441,15.7c.832-1.441,2.973-2.21,6-2.21a24.687,24.687,0,0,1,4.432.447,53.129,53.129,0,0,0-1.256,6.981,54.353,54.353,0,0,0-5.567,4.6q-.438-.517-.853-1.054c-2.842-3.685-3.848-6.88-2.759-8.766ZM33.95,42.885c-3.03,0-5.171-.769-6-2.21-1.089-1.886-.083-5.081,2.759-8.766q.625-.809,1.3-1.576a52.844,52.844,0,0,0,5.546,4.712,54.071,54.071,0,0,0,1.253,7.312A25.273,25.273,0,0,1,33.95,42.885ZM49.819,53.256c-2.444,0-5.043-3.17-6.869-8.512a54.091,54.091,0,0,0,6.869-2.54,54.091,54.091,0,0,0,6.869,2.54C54.862,50.086,52.263,53.256,49.819,53.256ZM71.692,40.675C70.466,42.8,66.4,43.461,60.83,42.357a54.052,54.052,0,0,0,1.253-7.312,52.824,52.824,0,0,0,5.546-4.712q.677.766,1.3,1.576C71.775,35.594,72.781,38.789,71.692,40.675Z" transform="translate(-24.208 0)" fill="#fff"/>
    <ellipse id="Elipse_14" data-name="Elipse 14" cx="5.121" cy="5.121" rx="5.121" ry="5.121" transform="translate(20.49 23.164)" fill="#fff"/>
  </g>
</svg>
