<svg xmlns="http://www.w3.org/2000/svg" width="55.764" height="55.764" viewBox="0 0 55.764 55.764">
  <path id="twitter" d="M49.79,2.25H5.975A5.976,5.976,0,0,0,0,8.225V52.04a5.976,5.976,0,0,0,5.975,5.975H49.79a5.976,5.976,0,0,0,5.975-5.975V8.225A5.976,5.976,0,0,0,49.79,2.25ZM43.7,22.017c.025.349.025.71.025,1.058C43.728,33.866,35.513,46.3,20.5,46.3a23.12,23.12,0,0,1-12.535-3.66,17.2,17.2,0,0,0,1.967.1,16.368,16.368,0,0,0,10.132-3.485,8.174,8.174,0,0,1-7.63-5.664,8.8,8.8,0,0,0,3.684-.149,8.164,8.164,0,0,1-6.535-8.016v-.1a8.158,8.158,0,0,0,3.684,1.033,8.146,8.146,0,0,1-3.635-6.8,8.062,8.062,0,0,1,1.108-4.12,23.18,23.18,0,0,0,16.829,8.539A8.181,8.181,0,0,1,41.5,16.527a16,16,0,0,0,5.178-1.967,8.142,8.142,0,0,1-3.585,4.494,16.246,16.246,0,0,0,4.705-1.27A17.184,17.184,0,0,1,43.7,22.017Z" transform="translate(0 -2.25)" fill="#fff"/>
</svg>
